<?xml version="1.0" encoding="UTF-8" standalone="no"?>
<svg
   width="800"
   height="800"
   viewBox="0 0 800 800"
   version="1.1"
   id="svg4"
   sodipodi:docname="AppIcon.svg"
   inkscape:version="1.4 (e7c3feb1, 2024-10-09)"
   xml:space="preserve"
   xmlns:inkscape="http://www.inkscape.org/namespaces/inkscape"
   xmlns:sodipodi="http://sodipodi.sourceforge.net/DTD/sodipodi-0.dtd"
   xmlns:xlink="http://www.w3.org/1999/xlink"
   xmlns="http://www.w3.org/2000/svg"
   xmlns:svg="http://www.w3.org/2000/svg"><sodipodi:namedview
     id="namedview4"
     pagecolor="#505050"
     bordercolor="#eeeeee"
     borderopacity="1"
     inkscape:showpageshadow="0"
     inkscape:pageopacity="0"
     inkscape:pagecheckerboard="0"
     inkscape:deskcolor="#d1d1d1"
     inkscape:zoom="0.65324512"
     inkscape:cx="359.74245"
     inkscape:cy="402.60538"
     inkscape:window-width="1872"
     inkscape:window-height="977"
     inkscape:window-x="1968"
     inkscape:window-y="25"
     inkscape:window-maximized="0"
     inkscape:current-layer="svg4"
     showguides="false" /><rect
     x="0"
     y="0"
     width="800"
     height="800"
     rx="0"
     fill="#1e293b"
     id="rect1"
     style="fill:url(#radialGradient2);fill-opacity:1;stroke:none;stroke-opacity:1" /><!-- Background: Rounded Square --><!-- Tube Line (Minimalistic Path) --><!-- Stations (Minimalistic) --><!-- Station 1 --><!-- Station 2 --><!-- Station 3 --><!-- Defining Subtle Gradient for background --><defs
     id="defs4"><linearGradient
       id="linearGradient1"
       inkscape:collect="always"><stop
         style="stop-color:#121212;stop-opacity:1;"
         offset="0"
         id="stop1" /><stop
         style="stop-color:#131313;stop-opacity:1;"
         offset="1"
         id="stop2" /></linearGradient><linearGradient
       id="grad1"
       x1="0"
       y1="0"
       x2="1"
       y2="1"><stop
         offset="0%"
         style="stop-color:#334155;stop-opacity:1"
         id="stop3" /><stop
         offset="100%"
         style="stop-color:#1E293B;stop-opacity:1"
         id="stop4" /></linearGradient><radialGradient
       inkscape:collect="always"
       xlink:href="#linearGradient1"
       id="radialGradient2"
       cx="400"
       cy="400"
       fx="400"
       fy="400"
       r="400"
       gradientUnits="userSpaceOnUse" /></defs><g
     id="g1"
     transform="translate(-5.9611514,27.743715)"><g
       id="g4"
       transform="translate(-96.769726,-184.61212)"
       style="fill:#000000;fill-opacity:1" /></g><g
     id="g2"
     transform="matrix(1.0761361,0,0,1.0761361,-30.454426,9.7867215)"
     style="stroke-width:21.90800959;stroke-dasharray:none" /><path
     fill="none"
     stroke="#02063b"
     paint-order="fill stroke markers"
     d="m 141.34185,197.76144 0.34056,0.13705 0.34056,0.13701 0.34057,0.13697 0.34056,0.13694 0.34056,0.1369 0.34057,0.13686 0.34056,0.13683 0.34056,0.13678 0.34057,0.13675 0.34056,0.1367 0.34057,0.13665 0.34056,0.1366 0.34056,0.13655 0.34057,0.13651 0.34056,0.13646 0.34057,0.13639 0.34056,0.13635 0.34056,0.13629 0.34057,0.13622 0.34056,0.13618 0.34057,0.13611 0.34056,0.13605 0.34056,0.13598 0.34057,0.13592 0.34056,0.13585 0.34057,0.13579 0.34056,0.13571 0.34056,0.13564 0.34057,0.13557 0.34056,0.1355 0.34056,0.13542 0.34057,0.13534 0.34056,0.13526 0.34057,0.13519 0.34056,0.13509 0.34056,0.13503 0.34057,0.13493 0.34056,0.13484 0.34057,0.13475 0.34056,0.13467 0.34056,0.13458 0.34056,0.13449 0.34057,0.13439 0.34056,0.13429 0.34056,0.1342 0.34057,0.1341 0.34056,0.134 0.34056,0.1339 0.34057,0.13379 0.34056,0.1337 0.34056,0.13358 0.34057,0.13348 0.34056,0.13337 0.34057,0.13325 0.34056,0.13315 0.34056,0.13304 0.34057,0.13292 0.34056,0.1328 0.34057,0.13268 0.34056,0.13256 0.34056,0.13245 0.34057,0.13232 0.34056,0.1322 0.34057,0.13207 0.34056,0.13195 0.34056,0.13183 0.34057,0.13168 0.34056,0.13156 0.34057,0.13143 0.34056,0.1313 0.34056,0.13115 0.34057,0.13102 0.34056,0.13089 0.34057,0.13074 0.34056,0.1306 0.34056,0.13046 0.34057,0.13032 0.34056,0.13017 0.34057,0.13002 0.34056,0.12987 0.34056,0.12973 0.34056,0.12957 0.34057,0.12943 0.34056,0.12926 0.34056,0.12911 0.34057,0.12896 0.34056,0.12879 0.34056,0.12864 0.34057,0.12847 0.34056,0.12832 0.34056,0.12814 0.34057,0.12799 0.34056,0.12781 0.34057,0.12764 0.34056,0.12748 0.34056,0.12731 0.34057,0.12713 0.34056,0.12696 0.34057,0.12678 0.34056,0.12661 0.34056,0.12643 0.34057,0.12625 0.34056,0.12606 0.34057,0.12589 0.34056,0.1257 0.34056,0.12552 0.34057,0.12532 0.34056,0.12514 0.34056,0.12496 0.34057,0.12476 0.34056,0.12456 0.34057,0.12438 0.34056,0.12418 0.34056,0.12399 0.34057,0.12378 0.34056,0.12359 0.34057,0.12338 0.34056,0.12319 0.34056,0.12298 0.34057,0.12277 0.34056,0.12257 0.34056,0.12236 0.34057,0.12216 0.34056,0.12194 0.34056,0.12173 0.34057,0.12152 0.34056,0.12131 0.34056,0.12109 0.34056,0.12087 0.34057,0.12065 0.34056,0.12044 0.34057,0.12022 0.34056,0.11999 0.34056,0.11977 0.34057,0.11954 0.34056,0.11932 0.34057,0.11909 0.34056,0.11886 0.34056,0.11863 0.34057,0.1184 0.34056,0.11817 0.34057,0.11793 0.34056,0.1177 0.34056,0.11746 0.34057,0.11722 0.34056,0.11699 0.34057,0.11674 0.34056,0.1165 0.34056,0.11626 0.34057,0.11601 0.34056,0.11577 0.34057,0.11552 0.34056,0.11527 0.34056,0.11503 0.34057,0.11477 0.34056,0.11451 0.34057,0.11427 0.34056,0.11401 0.34056,0.11375 0.34057,0.11351 0.34056,0.11323 0.34057,0.11299 0.34056,0.11271 0.34056,0.11246 0.34056,0.11219 0.34057,0.11193 0.34056,0.11166 0.34056,0.11139 0.34056,0.11113 0.34057,0.11085 0.34056,0.11059 0.34057,0.11031 0.34056,0.11004 0.34056,0.10977 0.34057,0.10949 0.34056,0.10921 0.34057,0.10894 0.34056,0.10865 0.34056,0.10837 0.34057,0.10809 0.34056,0.10781 0.34057,0.10752 0.34056,0.10724 0.34056,0.10696 0.34057,0.10665 0.34056,0.10638 0.34056,0.10609 0.34057,0.10579 0.34056,0.1055 0.34057,0.10521 0.34056,0.10491 0.34056,0.10462 0.34057,0.10431 0.34056,0.10402 0.34057,0.10372 0.34056,0.10342 0.34056,0.10312 0.34057,0.10281 0.34056,0.10251 0.34057,0.10221 0.34056,0.1019 0.34056,0.10159 0.34057,0.10128 0.34056,0.10097 0.34056,0.10066 0.34057,0.10035 0.34056,0.10004 0.34056,0.0997 0.34056,0.0994 0.34057,0.0991 0.34056,0.0988 0.34056,0.0985 0.34057,0.0981 0.34056,0.0978 0.34057,0.0975 0.34056,0.0972 0.34056,0.0968 0.34057,0.0965 0.34056,0.0962 0.34057,0.0959 0.34056,0.0955 0.34056,0.0952 0.34057,0.0949 0.34056,0.0945 0.34057,0.0942 0.34056,0.0939 0.34056,0.0935 0.34057,0.0932 0.34056,0.0929 0.34057,0.0925 0.34056,0.0922 0.34056,0.0919 0.34057,0.0915 0.34056,0.0912 0.34057,0.0908 0.34056,0.0905 0.34056,0.0901 0.34057,0.0898 0.34056,0.0894 0.34057,0.0891 0.34056,0.0887 0.34056,0.0884 0.34057,0.0881 0.34056,0.0877 0.34056,0.0873 0.34057,0.087 0.34056,0.0866 0.34056,0.0863 0.34056,0.0859 0.34057,0.0856 0.34056,0.0852 0.34056,0.0848 0.34057,0.0845 0.34056,0.0841 0.34057,0.0838 0.34056,0.0834 0.34056,0.083 0.34057,0.0827 0.34056,0.0823 0.34057,0.0819 0.34056,0.0816 0.34056,0.0812 0.34057,0.0808 0.34056,0.0804 0.34056,0.0801 0.34057,0.0797 0.34056,0.0793 0.34057,0.079 0.34056,0.0786 0.34056,0.0782 0.34057,0.0778 0.34056,0.0774 0.34057,0.0771 0.34056,0.0767 0.34056,0.0763 0.34057,0.076 0.34056,0.0756 0.34057,0.0752 0.34056,0.0748 0.34056,0.0744 0.34057,0.074 0.34056,0.0736 0.34057,0.0732 0.34056,0.0729 0.34056,0.0725 0.34057,0.0721 0.34056,0.0717 0.34056,0.0713 0.34056,0.0709 0.34057,0.0705 0.34056,0.0701 0.34056,0.0697 0.34057,0.0693 0.34056,0.0689 0.34056,0.0686 0.34057,0.0682 0.34056,0.0678 0.34057,0.0674 0.34056,0.067 0.34056,0.0666 0.34057,0.0661 0.34056,0.0658 0.34057,0.0653 0.34056,0.0649 0.34056,0.0645 0.34057,0.0641 0.34056,0.0637 0.34057,0.0633 0.34056,0.0629 0.34056,0.0625 0.34057,0.0621 0.34056,0.0617 0.34057,0.0613 0.34056,0.0609 0.34056,0.0605 0.34057,0.0601 0.34056,0.0597 0.34057,0.0593 0.34056,0.0589 0.34056,0.0584 0.34057,0.058 0.34056,0.0575 0.34057,0.0571 0.34056,0.0567 0.34056,0.0563 0.34057,0.0559 0.34056,0.0555 0.34056,0.055 0.34056,0.0546 0.34057,0.0542 0.34056,0.0538 0.34056,0.0534 0.34057,0.0529 0.34056,0.0525 0.34056,0.0521 0.34057,0.0517 0.34056,0.0513 0.34056,0.0508 0.34057,0.0504 0.34056,0.05 0.34057,0.0496 0.34056,0.0491 0.34056,0.0487 0.34057,0.0483 0.34056,0.0479 0.34057,0.0474 0.34056,0.047 0.34056,0.0466 0.34057,0.0461 0.34056,0.0457 0.34057,0.0453 0.34056,0.0448 0.34056,0.0444 0.34057,0.044 0.34056,0.0435 0.34057,0.0431 0.34056,0.0427 0.34056,0.0422 0.34057,0.0418 0.34056,0.0413 0.34057,0.0409 0.34056,0.0405 0.34056,0.04 0.34057,0.0396 0.34056,0.0391 0.34057,0.0387 0.34056,0.0383 0.34056,0.0378 0.34056,0.0374 0.34057,0.0369 0.34056,0.0365 0.34056,0.0361 0.34057,0.0356 0.34056,0.0352 0.34056,0.0348 0.34057,0.0343 0.34056,0.0338 0.34056,0.0335 0.34057,0.033 0.34056,0.0325 0.34057,0.0321 0.34056,0.0317 0.34056,0.0312 0.34057,0.0308 0.34056,0.0303 0.34057,0.0299 0.34056,0.0294 0.34056,0.029 0.34057,0.0285 0.34056,0.0281 0.34057,0.0276 0.34056,0.0272 0.34056,0.0267 0.34057,0.0263 0.34056,0.0258 0.34057,0.0254 0.34056,0.0249 0.34056,0.0245 0.34057,0.024 0.34056,0.0235 0.34057,0.0231 0.34056,0.0226 0.34056,0.0222 0.34057,0.0217 0.34056,0.0213 0.34057,0.0209 0.34056,0.0204 0.34056,0.02 0.34057,0.0195 0.34056,0.0191 0.34056,0.0186 0.34056,0.0182 0.34057,0.0177 0.34056,0.0172 0.34056,0.0168 0.34056,0.0163 0.34057,0.0158 0.34056,0.0154 0.34057,0.0149 0.34056,0.0145 0.34056,0.014 0.34057,0.0136 0.34056,0.0131 0.34057,0.0127 0.34056,0.0123 0.34056,0.0118 0.34057,0.0113 0.34056,0.0109 0.34057,0.0104 0.34056,0.01 0.34056,0.009 0.34057,0.009 0.34056,0.009 0.34057,0.008 0.34056,0.007 0.34056,0.007 0.34057,0.006 0.34056,0.007 0.34057,0.006 0.34056,0.006 0.34056,0.005 0.34057,0.004 0.34056,0.004 0.34057,0.003 0.34056,0.003 0.34056,0.002 0.34057,0.002 0.34056,0.002 0.34057,0.002 0.34056,6.8e-4 0.34056,3.3e-4 0.34056,-1.2e-4 0.34057,-6.8e-4 0.34056,-8.1e-4 0.34056,-0.002 0.34056,-0.002 0.34057,-0.002 0.34056,-0.002 0.34057,-0.003 0.34056,-0.004 0.34056,-0.004 0.34057,-0.005 0.34056,-0.005 0.34057,-0.006 0.34056,-0.006 0.34056,-0.006 0.34057,-0.007 0.34056,-0.007 0.34057,-0.008 0.34056,-0.008 0.34056,-0.009 0.34057,-0.009 0.34056,-0.01 0.34057,-0.0101 0.34056,-0.0106 0.34056,-0.0111 0.34057,-0.0115 0.34056,-0.012 0.34057,-0.0125 0.34056,-0.0129 0.34056,-0.0134 0.34057,-0.0138 0.34056,-0.0143 0.34057,-0.0148 0.34056,-0.0152 0.34056,-0.0157 0.34057,-0.0161 0.34056,-0.0166 0.34057,-0.017 0.34056,-0.0174 0.34056,-0.0179 0.34056,-0.0184 0.34057,-0.0188 0.34056,-0.0193 0.34056,-0.0197 0.34056,-0.0202 0.34057,-0.0206 0.34056,-0.0211 0.34056,-0.0216 0.34057,-0.022 0.34056,-0.0224 0.34057,-0.0229 0.34056,-0.0234 0.34056,-0.0238 0.34057,-0.0243 0.34056,-0.0248 0.34057,-0.0252 0.34056,-0.0257 0.34056,-0.0261 0.34057,-0.0265 0.34056,-0.0269 0.34057,-0.0274 0.34056,-0.0278 0.34056,-0.0283 0.34057,-0.0287 0.34056,-0.0292 0.34057,-0.0296 0.34056,-0.0301 0.34056,-0.0305 0.34057,-0.031 0.34056,-0.0314 0.34057,-0.0319 0.34056,-0.0323 0.34056,-0.0328 0.34057,-0.0332 0.34056,-0.0336 0.34057,-0.0341 0.34056,-0.0346 0.34056,-0.035 0.34057,-0.0355 0.34056,-0.0359 0.34056,-0.0363 0.34057,-0.0368 0.34056,-0.0372 0.34056,-0.0377 0.34056,-0.0381 0.34057,-0.0385 0.34056,-0.039 0.34056,-0.0394 0.34057,-0.0399 0.34056,-0.0403 0.34057,-0.0407 0.34056,-0.0412 0.34056,-0.0416 0.34057,-0.042 0.34056,-0.0425 0.34057,-0.0429 0.34056,-0.0433 0.34056,-0.0438 0.34057,-0.0442 0.34056,-0.0446 0.34057,-0.0451 0.34056,-0.0455 0.34056,-0.046 0.34057,-0.0463 0.34056,-0.0468 0.34057,-0.0472 0.34056,-0.0477 0.34056,-0.048 0.34057,-0.0485 0.34056,-0.049 0.34057,-0.0494 0.34056,-0.0498 0.34056,-0.0502 0.34057,-0.0507 0.34056,-0.0511 0.34057,-0.0515 0.34056,-0.0519 0.34056,-0.0524 0.34057,-0.0528 0.34056,-0.0532 0.34056,-0.0536 0.34057,-0.0541 0.34056,-0.0545 0.34056,-0.0549 0.34056,-0.0553 0.34057,-0.0557 0.34056,-0.0561 0.34056,-0.0565 0.34057,-0.057 0.34056,-0.0574 0.34056,-0.0578 0.34057,-0.0582 0.34056,-0.0586 0.34057,-0.059 0.34056,-0.0594 0.34056,-0.0598 0.34057,-0.0602 0.34056,-0.0607 0.34057,-0.061 0.34056,-0.0615 0.34056,-0.0619 0.34057,-0.0623 0.34056,-0.0627 0.34057,-0.0632 0.34056,-0.0636 0.34056,-0.064 0.34057,-0.0644 0.34056,-0.0648 0.34057,-0.0652 0.34056,-0.0656 0.34056,-0.066 0.34057,-0.0663 0.34056,-0.0667 0.34057,-0.0671 0.34056,-0.0675 0.34056,-0.0679 0.34057,-0.0684 0.34056,-0.0688 0.34057,-0.0692 0.34056,-0.0696 0.34056,-0.07 0.34057,-0.0703 0.34056,-0.0707 0.34056,-0.0711 0.34056,-0.0715 0.34057,-0.0719 0.34056,-0.0722 0.34056,-0.0727 0.34057,-0.0731 0.34056,-0.0735 0.34056,-0.0739 0.34057,-0.0742 0.34056,-0.0746 0.34057,-0.075 0.34056,-0.0754 0.34056,-0.0757 0.34057,-0.0761 0.34056,-0.0765 0.34057,-0.0769 0.34056,-0.0773 0.34056,-0.0777 0.34057,-0.078 0.34056,-0.0784 0.34057,-0.0788 0.34056,-0.0791 0.34056,-0.0796 0.34057,-0.0799 0.34056,-0.0803 0.34057,-0.0807 0.34056,-0.081 0.34056,-0.0814 0.34057,-0.0818 0.34056,-0.0821 0.34056,-0.0825 0.34057,-0.0829 0.34056,-0.0832 0.34057,-0.0836 0.34056,-0.084 0.34056,-0.0843 0.34057,-0.0847 0.34056,-0.085 0.34057,-0.0854 0.34056,-0.0858 0.34056,-0.0861 0.34057,-0.0865 0.34056,-0.0868 0.34056,-0.0872 0.34056,-0.0875 0.34057,-0.0879 0.34056,-0.0882 0.34056,-0.0886 0.34057,-0.0889 0.34056,-0.0893 0.34056,-0.0896 0.34057,-0.09 0.34056,-0.0903 0.34057,-0.0907 0.34056,-0.091 0.34056,-0.0914 0.34057,-0.0917 0.34056,-0.092 0.34057,-0.0924 0.34056,-0.0927 0.34056,-0.0931 0.34057,-0.0934 0.34056,-0.0937 0.34057,-0.0941 0.34056,-0.0944 0.34056,-0.0947 0.34057,-0.0951 0.34056,-0.0954 0.34057,-0.0957 0.34056,-0.096 0.34056,-0.0964 0.34057,-0.0967 0.34056,-0.097 0.34057,-0.0973 0.34056,-0.0976 0.34056,-0.098 0.34057,-0.0983 0.34056,-0.0986 0.34057,-0.0989 0.34056,-0.0993 0.34056,-0.0996 0.34057,-0.0999 0.34056,-0.1002 0.34056,-0.10051 0.34056,-0.10083 0.34057,-0.10113 0.34056,-0.10144 0.34056,-0.10176 0.34057,-0.10205 0.34056,-0.10237 0.34056,-0.10266 0.34057,-0.10298 0.34056,-0.10327 0.34057,-0.10358 0.34056,-0.10388 0.34056,-0.10417 0.34057,-0.10448 0.34056,-0.10477 0.34057,-0.10506 0.34056,-0.10536 0.34056,-0.10565 0.34057,-0.10595 0.34056,-0.10623 0.34057,-0.10653 0.34056,-0.10682 0.34056,-0.1071 0.34057,-0.10739 0.34056,-0.10767 0.34056,-0.10795 0.34057,-0.10824 0.34056,-0.10852 0.34057,-0.1088 0.34056,-0.10908 0.34056,-0.10936 0.34057,-0.10964 0.34056,-0.1099 0.34057,-0.11019 0.34056,-0.11045 0.34056,-0.11073 0.34057,-0.11099 0.34056,-0.11127 0.34057,-0.11153 0.34056,-0.1118 0.34056,-0.11207 0.34056,-0.11233 0.34057,-0.11259 0.34056,-0.11286 0.34056,-0.11312 0.34056,-0.11337 0.34057,-0.11363 0.34056,-0.11389 0.34057,-0.11415 0.34056,-0.11439 0.34056,-0.11465 0.34057,-0.1149 0.34056,-0.11516 0.34057,-0.1154 0.34056,-0.11565 0.34056,-0.1159 0.34057,-0.11614 0.34056,-0.11638 0.34057,-0.11663 0.34056,-0.11687 0.34056,-0.1171 0.34057,-0.11736 0.34056,-0.11758 0.34057,-0.11782 0.34056,-0.11806 0.34056,-0.11828 0.34057,-0.11853 0.34056,-0.11875 0.34057,-0.11898 0.34056,-0.11921 0.34056,-0.11943 0.34057,-0.11966 0.34056,-0.11989 0.34057,-0.12011 0.34056,-0.12033 0.34056,-0.12055 0.34057,-0.12076 0.34056,-0.12099 0.34057,-0.12121 0.34056,-0.12142 0.34056,-0.12163 0.34056,-0.12184 0.34057,-0.12205 0.34056,-0.12227 0.34056,-0.12246 0.34056,-0.12268 0.34057,-0.12289 0.34056,-0.12308 0.34057,-0.12329 0.34056,-0.12349 0.34056,-0.12369 0.34057,-0.12389 0.34056,-0.12409 0.34057,-0.12427 0.34056,-0.12449 0.34056,-0.12466 0.34057,-0.12487 0.34056,-0.12505 0.34057,-0.12523 0.34056,-0.12543 0.34056,-0.12561 0.34057,-0.1258 0.34056,-0.12598 0.34056,-0.12617 0.34057,-0.12634 0.34056,-0.12652 0.34057,-0.1267 0.34056,-0.12687 0.34056,-0.12705 0.34057,-0.12722 0.34056,-0.1274 0.34057,-0.12757 0.34056,-0.12773 0.34056,-0.12791 0.34057,-0.12807 0.34056,-0.12823 0.34057,-0.12839 0.34056,-0.12856 0.34056,-0.12872 0.34057,-0.12888 0.34056,-0.12903 0.34056,-0.1292 0.34057,-0.12934 0.34056,-0.12951 0.34056,-0.12965 0.34056,-0.1298 0.34057,-0.12995 0.34056,-0.1301 0.34056,-0.13026 0.34057,-0.13038 0.34056,-0.13054 0.34057,-0.13067 0.34056,-0.13081 0.34056,-0.13096 0.34057,-0.1311 0.34056,-0.13122 0.34057,-0.13137 0.34056,-0.1315 0.34056,-0.13162 0.34057,-0.13176 0.34056,-0.13188 0.34057,-0.13202 0.34056,-0.13214 0.34056,-0.13227 0.34057,-0.13238 0.34056,-0.13251 0.34057,-0.13263 0.34056,-0.13274 0.34056,-0.13287 0.34057,-0.13298 0.34056,-0.13309 0.34057,-0.1332 0.34056,-0.13332 0.34056,-0.13342 0.34057,-0.13354 0.34056,-0.13364 0.34057,-0.13375 0.34056,-0.13384 0.34056,-0.13396 0.34057,-0.13405 0.34056,-0.13415 0.34056,-0.13426 0.34057,-0.13434 0.34056,-0.13443 0.34056,-0.13454 0.34056,-0.13462 0.34057,-0.13472 0.34056,-0.1348 0.34056,-0.1349 0.34057,-0.13496 0.34056,-0.13507 0.34057,-0.13514 0.34056,-0.13523 0.34056,-0.1353 0.34057,-0.13538 0.34056,-0.13546 0.34057,-0.13554 0.34056,-0.1356 0.34056,-0.13568 0.34057,-0.13575 0.34056,-0.13582 0.34056,-0.13589 0.34057,-0.13595 0.34056,-0.13603 0.34057,-0.13608 0.34056,-0.13614 0.34056,-0.1362 0.34057,-0.13626 0.34056,-0.13632 0.34057,-0.13637 0.34056,-0.13643 0.34056,-0.13649 0.34057,-0.13653 0.34056,-0.13658 0.34057,-0.13663 0.34056,-0.13667 0.34056,-0.13672 0.34057,-0.13676 0.34056,-0.13681 0.34057,-0.13684 0.34056,-0.13689 0.34056,-0.13692 0.34057,-0.13696 0.34056,-0.13699 0.34056,-0.13703 0.34057,-0.13705 0.34056,-0.13709 0.34056,-0.13711 0.34056,-0.13715 0.34057,-0.13716 0.34056,-0.13719 0.34056,-0.13721 0.34057,-0.13723 0.34056,-0.13725 0.34057,-0.13727 0.34056,-0.13728 0.34056,-0.13731 0.34057,-0.13731 0.34056,-0.13732 0.34057,-0.13734 0.34056,-0.13734 0.34056,-0.13735 0.34057,-0.13735 0.34056,-0.13736 0.34057,-0.13736 0.34056,-0.13736 0.34056,-0.13735 0.34057,-0.13737 0.34056,-0.13735 0.34057,-0.13735 0.34056,-0.13734 0.34056,-0.13733 0.34057,-0.13733 0.34056,-0.13731 0.34057,-0.1373 0.34056,-0.13728 0.34056,-0.13727 0.34057,-0.13725 0.34056,-0.13723 0.34057,-0.13721 0.34056,-0.13719 0.34056,-0.13717 0.34057,-0.13713 0.34056,-0.13712 0.34056,-0.13708 0.34057,-0.13705 0.34056,-0.13703 0.34056,-0.13698 0.34056,-0.13696 0.34057,-0.13693 0.34056,-0.13688 0.34056,-0.13684 0.34057,-0.13681 0.34056,-0.13676 0.34056,-0.13672 0.34057,-0.13667 0.34056,-0.13663 0.34057,-0.13657 0.34056,-0.13653 0.34056,-0.13648 0.34057,-0.13643 0.34056,-0.13637 0.34057,-0.13631 0.34056,-0.13626 0.34056,-0.13621 0.34057,-0.13614 0.34056,-0.13608 0.34057,-0.13601 0.34056,-0.13595 0.34056,-0.13588 0.34057,-0.13582 0.34056,-0.13575 0.34057,-0.13568 0.34056,-0.1356 0.34056,-0.13553 0.34057,-0.13546 0.34056,-0.13538 0.34057,-0.13529 0.34056,-0.13522 0.34056,-0.13514 0.34057,-0.13506 0.34056,-0.13497 0.34057,-0.13489 0.34056,-0.13481 0.34056,-0.13471 0.34057,-0.13462 0.34056,-0.13452 0.34056,-0.13444 0.34056,-0.13434 0.34057,-0.13424 0.34056,-0.13415 0.34056,-0.13405 0.34057,-0.13394 0.34056,-0.13385 0.34056,-0.13374 0.34057,-0.13364 0.34056,-0.13353 0.34057,-0.13342 0.34056,-0.13331 0.34056,-0.1332 0.34057,-0.13309 0.34056,-0.13297 0.34057,-0.13286 0.34056,-0.13274 0.34056,-0.13263 0.34057,-0.1325 0.34056,-0.13238 0.34057,-0.13226 0.34056,-0.13213 0.34056,-0.13201 0.34057,-0.13188 0.34056,-0.13176 0.34057,-0.13161 0.34056,-0.1315 0.34056,-0.13136 0.34057,-0.13121 0.34056,-0.13109 0.34057,-0.13095 0.34056,-0.13081 0.34056,-0.13067 0.34057,-0.13053 0.34056,-0.13039 0.34057,-0.13023 0.34056,-0.13009 0.34056,-0.12995 0.34057,-0.1298 0.34056,-0.12964 0.34056,-0.1295 0.34056,-0.12934 0.34057,-0.12918 0.34056,-0.12903 0.34056,-0.12887 0.34056,-0.12872 0.34057,-0.12855 0.34056,-0.12839 0.34057,-0.12822 0.34056,-0.12807 0.34056,-0.12789 0.34057,-0.12773 0.34056,-0.12756 0.34057,-0.12739 0.34056,-0.12721 0.34056,-0.12704 0.34057,-0.12687 0.34056,-0.12669 0.34057,-0.12652 0.34056,-0.12633 0.34056,-0.12615 0.34057,-0.12598 0.34056,-0.12579 0.34057,-0.1256 0.34056,-0.12542 0.34056,-0.12523 0.34057,-0.12504 0.34056,-0.12486 0.34057,-0.12466 0.34056,-0.12446 0.34056,-0.12427 0.34057,-0.12409 0.34056,-0.12387 0.34057,-0.12368 0.34056,-0.12348 0.34056,-0.12328 0.34057,-0.12308 0.34056,-0.12288 0.34057,-0.12267 0.34056,-0.12245 0.34056,-0.12226 0.34056,-0.12205 0.34057,-0.12183 0.34056,-0.12162 0.34056,-0.1214 0.34056,-0.1212 0.34057,-0.12098 0.34056,-0.12075 0.34057,-0.12055 0.34056,-0.12032 0.34056,-0.12009 0.34057,-0.11988 0.34056,-0.11965 0.34057,-0.11943 0.34056,-0.1192 0.34056,-0.11897 0.34057,-0.11874 0.34056,-0.11851 0.34057,-0.11828 0.34056,-0.11805 0.34056,-0.11781 0.34057,-0.11757 0.34056,-0.11734 0.34057,-0.11709 0.34056,-0.11686 0.34056,-0.11662 0.34057,-0.11637 0.34056,-0.11614 0.34057,-0.11588 0.34056,-0.11563 0.34056,-0.11539 0.34057,-0.11515 0.34056,-0.11489 0.34057,-0.11464 0.34056,-0.11439 0.34056,-0.11413 0.34057,-0.11388 0.34056,-0.11362 0.34057,-0.11336 0.34056,-0.1131 0.34056,-0.11285 0.34056,-0.11258 0.34057,-0.11232 0.34056,-0.11205 0.34056,-0.1118 0.34056,-0.11151 0.34057,-0.11126 0.34056,-0.11098 0.34056,-0.11072 0.34057,-0.11044 0.34056,-0.11017 0.34057,-0.1099 0.34056,-0.10962 0.34056,-0.10935 0.34057,-0.10906 0.34056,-0.10879 0.34057,-0.1085 0.34056,-0.10823 0.34056,-0.10795 0.34057,-0.10765 0.34056,-0.10738 0.34057,-0.10709 0.34056,-0.1068 0.34056,-0.10652 0.34057,-0.10621 0.34056,-0.10594 0.34057,-0.10564 0.34056,-0.10535 0.34056,-0.10504 0.34057,-0.10477 0.34056,-0.10445 0.34057,-0.10417 0.34056,-0.10386 0.34056,-0.10356 0.34057,-0.10327 0.34056,-0.10296 0.34057,-0.10265 0.34056,-0.10235 0.34056,-0.10205 0.34057,-0.10174 0.34056,-0.10142 0.34056,-0.10112 0.34057,-0.10081 0.34056,-0.10051 0.34056,-0.10018 0.34057,-0.0999 0.34056,-0.0996 0.34056,-0.0992 0.34056,-0.0989 0.34057,-0.0986 0.34056,-0.0983 0.34057,-0.098 0.34056,-0.0976 0.34056,-0.0973 0.34057,-0.097 0.34056,-0.0967 0.34057,-0.0964 0.34056,-0.096 0.34056,-0.0957 0.34057,-0.0954 0.34056,-0.095 0.34057,-0.0947 0.34056,-0.0944 0.34056,-0.094 0.34057,-0.0937 0.34056,-0.0934 0.34057,-0.093 0.34056,-0.0927 0.34056,-0.0923 0.34057,-0.092 0.34056,-0.0917 0.34057,-0.0913 0.34056,-0.091 0.34056,-0.0906 0.34057,-0.0903 0.34056,-0.09 0.34057,-0.0896 0.34056,-0.0893 0.34056,-0.0889 0.34057,-0.0886 0.34056,-0.0882 0.34056,-0.0879 0.34057,-0.0875 0.34056,-0.0872 0.34056,-0.0868 0.34057,-0.0864 0.34056,-0.0861 0.34056,-0.0857 0.34056,-0.0854 0.34057,-0.085 0.34056,-0.0847 0.34056,-0.0843 0.34057,-0.0839 0.34056,-0.0836 0.34057,-0.0832 0.34056,-0.0828 0.34056,-0.0825 0.34057,-0.0821 0.34056,-0.0817 0.34057,-0.0814 0.34056,-0.081 0.34056,-0.0806 0.34057,-0.0803 0.34056,-0.0799 0.34057,-0.0796 0.34056,-0.0791 0.34056,-0.0787 0.34057,-0.0784 0.34056,-0.078 0.34057,-0.0776 0.34056,-0.0773 0.34056,-0.0769 0.34057,-0.0765 0.34056,-0.0761 0.34057,-0.0757 0.34056,-0.0753 0.34056,-0.075 0.34057,-0.0746 0.34056,-0.0742 0.34057,-0.0738 0.34056,-0.0735 0.34056,-0.073 0.34057,-0.0727 0.34056,-0.0722 0.34056,-0.0718 0.34057,-0.0715 0.34056,-0.0711 0.34056,-0.0707 0.34056,-0.0703 0.34057,-0.0699 0.34056,-0.0695 0.34056,-0.0692 0.34057,-0.0688 0.34056,-0.0684 0.34057,-0.0679 0.34056,-0.0675 0.34056,-0.0671 0.34057,-0.0667 0.34056,-0.0663 0.34057,-0.0659 0.34056,-0.0655 0.34056,-0.0651 0.34057,-0.0647 0.34056,-0.0643 0.34057,-0.064 0.34056,-0.0636 0.34056,-0.0631 0.34057,-0.0627 0.34056,-0.0623 0.34057,-0.0619 0.34056,-0.0615 0.34056,-0.061 0.34057,-0.0606 0.34056,-0.0602 0.34056,-0.0598 0.34057,-0.0594 0.34056,-0.059 0.34057,-0.0586 0.34056,-0.0582 0.34056,-0.0578 0.34057,-0.0574 0.34056,-0.0569 0.34057,-0.0565 0.34056,-0.0561 0.34056,-0.0557 0.34057,-0.0553 0.34056,-0.0549 0.34056,-0.0544 0.34056,-0.054 0.34057,-0.0536 0.34056,-0.0532 0.34056,-0.0528 0.34057,-0.0523 0.34056,-0.0519 0.34056,-0.0515 0.34057,-0.0511 0.34056,-0.0506 0.34057,-0.0502 0.34056,-0.0498 0.34056,-0.0494 0.34057,-0.0489 0.34056,-0.0485 0.34057,-0.048 0.34056,-0.0477 0.34056,-0.0472 0.34057,-0.0468 0.34056,-0.0464 0.34057,-0.0459 0.34056,-0.0455 0.34056,-0.0451 0.34057,-0.0446 0.34056,-0.0442 0.34057,-0.0438 0.34056,-0.0433 0.34056,-0.0429 0.34057,-0.0425 0.34056,-0.042 0.34057,-0.0416 0.34056,-0.0412 0.34056,-0.0407 0.34057,-0.0403 0.34056,-0.0399 0.34057,-0.0394 0.34056,-0.039 0.34056,-0.0385 0.34057,-0.0381 0.34056,-0.0376 0.34056,-0.0372 0.34056,-0.0368 0.34057,-0.0363 0.34056,-0.0359 0.34056,-0.0354 0.34057,-0.035 0.34056,-0.0345 0.34056,-0.0341 0.34057,-0.0336 0.34056,-0.0332 0.34057,-0.0328 0.34056,-0.0323 0.34056,-0.0319 0.34057,-0.0314 0.34056,-0.0309 0.34057,-0.0305 0.34056,-0.03 0.34056,-0.0296 0.34057,-0.0292 0.34056,-0.0287 0.34057,-0.0283 0.34056,-0.0278 0.34056,-0.0274 0.34057,-0.0269 0.34056,-0.0265 0.34056,-0.0261 0.34057,-0.0256 0.34056,-0.0252 0.34057,-0.0247 0.34056,-0.0243 0.34056,-0.0238 0.34057,-0.0233 0.34056,-0.0229 0.34057,-0.0224 0.34056,-0.022 0.34056,-0.0215 0.34057,-0.0211 0.34056,-0.0206 0.34057,-0.0201 0.34056,-0.0197 0.34056,-0.0193 0.34056,-0.0188 0.34057,-0.0183 0.34056,-0.0179 0.34056,-0.0174 0.34056,-0.017 0.34057,-0.0166 0.34056,-0.0161 0.34057,-0.0156 0.34056,-0.0152 0.34056,-0.0147 0.34057,-0.0143 0.34056,-0.0138 0.34057,-0.0134 0.34056,-0.0129 0.34056,-0.0124 0.34057,-0.012 0.34056,-0.0115 0.34057,-0.011 0.34056,-0.0106 0.34056,-0.0102 0.34057,-0.01 0.34056,-0.009 0.34057,-0.009 0.34056,-0.008 0.34056,-0.008 0.34057,-0.007 0.34056,-0.007 0.34057,-0.006 0.34056,-0.006 0.34056,-0.006 0.34057,-0.005 0.34056,-0.005 0.34057,-0.004 0.34056,-0.004 0.34056,-0.003 0.34057,-0.002 0.34056,-0.002 0.34057,-0.002 0.34056,-0.002 0.34056,-8.1e-4 0.34056,-6.8e-4 0.34057,-1e-4 0.34056,3.4e-4 0.34056,6.8e-4 0.34057,0.002 0.34056,0.002 0.34056,0.002 0.34057,0.002 0.34056,0.003 0.34056,0.003 0.34057,0.004 0.34056,0.004 0.34057,0.005 0.34056,0.006 0.34056,0.006 0.34057,0.007 0.34056,0.006 0.34057,0.007 0.34056,0.007 0.34056,0.008 0.34057,0.009 0.34056,0.009 0.34056,0.009 0.34057,0.01 0.34056,0.0104 0.34057,0.0109 0.34056,0.0114 0.34056,0.0118 0.34057,0.0123 0.34056,0.0127 0.34057,0.0131 0.34056,0.0136 0.34056,0.014 0.34057,0.0145 0.34056,0.015 0.34057,0.0154 0.34056,0.0159 0.34056,0.0163 0.34057,0.0168 0.34056,0.0173 0.34056,0.0177 0.34057,0.0182 0.34056,0.0186 0.34056,0.0191 0.34057,0.0195 0.34056,0.02 0.34056,0.0205 0.34056,0.0209 0.34057,0.0213 0.34056,0.0218 0.34057,0.0222 0.34056,0.0226 0.34056,0.0231 0.34057,0.0236 0.34056,0.024 0.34057,0.0245 0.34056,0.0249 0.34056,0.0254 0.34057,0.0258 0.34056,0.0263 0.34057,0.0267 0.34056,0.0272 0.34056,0.0277 0.34057,0.0281 0.34056,0.0286 0.34057,0.029 0.34056,0.0294 0.34056,0.0299 0.34057,0.0303 0.34056,0.0308 0.34057,0.0312 0.34056,0.0317 0.34056,0.0322 0.34057,0.0326 0.34056,0.0329 0.34057,0.0334 0.34056,0.0339 0.34056,0.0343 0.34057,0.0347 0.34056,0.0352 0.34056,0.0356 0.34057,0.0361 0.34056,0.0365 0.34056,0.037 0.34057,0.0374 0.34056,0.0378 0.34056,0.0383 0.34056,0.0387 0.34057,0.0392 0.34056,0.0396 0.34057,0.0401 0.34056,0.0405 0.34056,0.0409 0.34057,0.0414 0.34056,0.0418 0.34057,0.0422 0.34056,0.0427 0.34056,0.0431 0.34057,0.0436 0.34056,0.044 0.34056,0.0444 0.34057,0.0449 0.34056,0.0453 0.34057,0.0457 0.34056,0.0461 0.34056,0.0466 0.34057,0.047 0.34056,0.0474 0.34057,0.0479 0.34056,0.0483 0.34056,0.0487 0.34057,0.0491 0.34056,0.0496 0.34057,0.05 0.34056,0.0504 0.34056,0.0509 0.34057,0.0513 0.34056,0.0517 0.34057,0.0521 0.34056,0.0525 0.34056,0.053 0.34057,0.0534 0.34056,0.0538 0.34056,0.0542 0.34057,0.0546 0.34056,0.0551 0.34056,0.0555"
     stroke-linecap="round"
     stroke-linejoin="round"
     stroke-miterlimit="10"
     stroke-width="5.44902"
     id="path1"
     style="stroke-width:22.65140998;stroke-dasharray:none;stroke:#ffffff;stroke-opacity:1"
     transform="matrix(1.0761361,0,0,1.0761361,-30.454426,9.7867215)" /><path
     fill="none"
     stroke="#02063b"
     paint-order="fill stroke markers"
     d="m 145.21898,365.21314 0.33546,0.33066 0.33546,0.33017 0.33545,0.32968 0.33546,0.32915 0.33546,0.3286 0.33546,0.32804 0.33546,0.32744 0.33546,0.32684 0.33546,0.32619 0.33546,0.32554 0.33546,0.32485 0.33545,0.32416 0.33546,0.32343 0.33546,0.32268 0.33546,0.32192 0.33546,0.32112 0.33546,0.32031 0.33546,0.31948 0.33546,0.31862 0.33546,0.31774 0.33545,0.31684 0.33546,0.31592 0.33546,0.31498 0.33546,0.31401 0.33546,0.31303 0.33546,0.31202 0.33546,0.31099 0.33546,0.30994 0.33546,0.30887 0.33545,0.30777 0.33546,0.30667 0.33546,0.30553 0.33546,0.30437 0.33546,0.3032 0.33546,0.302 0.33546,0.30079 0.33546,0.29954 0.33546,0.29829 0.33545,0.29701 0.33546,0.29571 0.33546,0.29439 0.33546,0.29306 0.33546,0.29169 0.33546,0.29031 0.33546,0.28892 0.33546,0.2875 0.33546,0.28606 0.33545,0.2846 0.33546,0.28312 0.33546,0.28163 0.33546,0.28011 0.33546,0.27857 0.33546,0.27703 0.33546,0.27544 0.33546,0.27386 0.33546,0.27225 0.33545,0.27062 0.33546,0.26897 0.33546,0.2673 0.33546,0.26562 0.33546,0.26392 0.33546,0.26219 0.33546,0.26046 0.33546,0.25871 0.33546,0.25692 0.33545,0.25514 0.33546,0.25333 0.33546,0.25151 0.33546,0.24966 0.33546,0.2478 0.33546,0.24592 0.33546,0.24403 0.33546,0.24212 0.33546,0.24019 0.33545,0.23825 0.33546,0.23628 0.33546,0.23431 0.33546,0.23232 0.33546,0.23032 0.33546,0.22828 0.33546,0.22625 0.33546,0.2242 0.33546,0.22212 0.33545,0.22004 0.33546,0.21794 0.33546,0.21583 0.33546,0.21369 0.33546,0.21155 0.33546,0.20939 0.33546,0.20722 0.33546,0.20503 0.33546,0.20283 0.33545,0.20062 0.33546,0.19838 0.33546,0.19615 0.33546,0.19388 0.33546,0.19162 0.33546,0.18934 0.33546,0.18704 0.33546,0.18474 0.33546,0.18241 0.33545,0.18008 0.33546,0.17774 0.33546,0.17537 0.33546,0.17301 0.33546,0.17063 0.33546,0.16823 0.33546,0.16583 0.33546,0.16342 0.33546,0.16099 0.33545,0.15855 0.33546,0.1561 0.33546,0.15364 0.33546,0.15118 0.33546,0.14869 0.33546,0.1462 0.33546,0.14371 0.33546,0.14119 0.33546,0.13867 0.33545,0.13615 0.33546,0.1336 0.33546,0.13106 0.33546,0.12851 0.33546,0.12593 0.33546,0.12336 0.33546,0.12078 0.33546,0.11819 0.33546,0.11559 0.33545,0.11299 0.33546,0.11037 0.33546,0.10775 0.33546,0.10512 0.33546,0.10248 0.33546,0.0998 0.33546,0.0972 0.33546,0.0945 0.33545,0.0919 0.33546,0.0892 0.33546,0.0865 0.33546,0.0838 0.33546,0.0812 0.33546,0.0785 0.33546,0.0758 0.33546,0.0731 0.33546,0.0703 0.33545,0.0676 0.33546,0.0649 0.33546,0.0622 0.33546,0.0595 0.33546,0.0567 0.33546,0.054 0.33546,0.0513 0.33546,0.0485 0.33546,0.0458 0.33545,0.043 0.33546,0.0403 0.33546,0.0375 0.33546,0.0348 0.33546,0.032 0.33546,0.0293 0.33546,0.0265 0.33546,0.0237 0.33546,0.021 0.33545,0.0182 0.33546,0.0154 0.33546,0.0127 0.33546,0.01 0.33546,0.007 0.33546,0.004 0.33546,0.002 0.33546,-10e-4 0.33546,-0.004 0.33545,-0.007 0.33546,-0.01 0.33546,-0.0123 0.33546,-0.0151 0.33546,-0.0178 0.33546,-0.0206 0.33546,-0.0234 0.33546,-0.0261 0.33546,-0.0289 0.33545,-0.0316 0.33546,-0.0344 0.33546,-0.0372 0.33546,-0.0399 0.33546,-0.0427 0.33546,-0.0454 0.33546,-0.0482 0.33546,-0.0509 0.33546,-0.0536 0.33545,-0.0564 0.33546,-0.0591 0.33546,-0.0618 0.33546,-0.0646 0.33546,-0.0673 0.33546,-0.07 0.33546,-0.0727 0.33546,-0.0754 0.33546,-0.0781 0.33545,-0.0808 0.33546,-0.0835 0.33546,-0.0862 0.33546,-0.0888 0.33546,-0.0915 0.33546,-0.0942 0.33546,-0.0968 0.33546,-0.0995 0.33546,-0.10213 0.33545,-0.10477 0.33546,-0.10741 0.33546,-0.11002 0.33546,-0.11264 0.33546,-0.11524 0.33546,-0.11785 0.33546,-0.12043 0.33546,-0.12302 0.33546,-0.1256 0.33545,-0.12816 0.33546,-0.13072 0.33546,-0.13327 0.33546,-0.13581 0.33546,-0.13833 0.33546,-0.14086 0.33546,-0.14337 0.33546,-0.14588 0.33546,-0.14836 0.33545,-0.15084 0.33546,-0.15332 0.33546,-0.15578 0.33546,-0.15822 0.33546,-0.16067 0.33546,-0.16309 0.33546,-0.16551 0.33546,-0.16792 0.33546,-0.17031 0.33545,-0.17269 0.33546,-0.17507 0.33546,-0.17742 0.33546,-0.17977 0.33546,-0.18211 0.33546,-0.18442 0.33546,-0.18674 0.33546,-0.18903 0.33546,-0.19132 0.33545,-0.19359 0.33546,-0.19584 0.33546,-0.19809 0.33546,-0.20032 0.33546,-0.20254 0.33546,-0.20474 0.33546,-0.20692 0.33546,-0.20911 0.33546,-0.21126 0.33545,-0.21342 0.33546,-0.21554 0.33546,-0.21766 0.33546,-0.21976 0.33546,-0.22185 0.33546,-0.22392 0.33546,-0.22598 0.33546,-0.22802 0.33546,-0.23004 0.33545,-0.23205 0.33546,-0.23405 0.33546,-0.23603 0.33546,-0.23799 0.33546,-0.23993 0.33546,-0.24186 0.33546,-0.24378 0.33546,-0.24567 0.33546,-0.24755 0.33545,-0.24942 0.33546,-0.25126 0.33546,-0.25309 0.33546,-0.25489 0.33546,-0.2567 0.33546,-0.25846 0.33546,-0.26023 0.33546,-0.26197 0.33546,-0.26369 0.33545,-0.2654 0.33546,-0.26708 0.33546,-0.26875 0.33546,-0.2704 0.33546,-0.27203 0.33546,-0.27364 0.33546,-0.27524 0.33546,-0.27682 0.33546,-0.27837 0.33545,-0.2799 0.33546,-0.28143 0.33546,-0.28293 0.33546,-0.28441 0.33546,-0.28586 0.33546,-0.28731 0.33546,-0.28873 0.33546,-0.29012 0.33546,-0.29152 0.33545,-0.29287 0.33546,-0.29422 0.33546,-0.29553 0.33546,-0.29684 0.33546,-0.29812 0.33546,-0.29938 0.33546,-0.30063 0.33546,-0.30184 0.33546,-0.30304 0.33545,-0.30422 0.33546,-0.30537 0.33546,-0.30652 0.33546,-0.30763 0.33546,-0.30872 0.33546,-0.3098 0.33546,-0.31085 0.33546,-0.31189 0.33546,-0.31289 0.33545,-0.31389 0.33546,-0.31485 0.33546,-0.31579 0.33546,-0.31672 0.33546,-0.31763 0.33546,-0.3185 0.33546,-0.31937 0.33546,-0.3202 0.33546,-0.32102 0.33545,-0.3218 0.33546,-0.32259 0.33546,-0.32333 0.33546,-0.32406 0.33546,-0.32476 0.33546,-0.32545 0.33546,-0.32611 0.33546,-0.32675 0.33546,-0.32736 0.33545,-0.32797 0.33546,-0.32852 0.33546,-0.32909 0.33546,-0.3296 0.33546,-0.33011 0.33546,-0.33059 0.33546,-0.33106 0.33546,-0.33149 0.33545,-0.3319 0.33546,-0.33229 0.33546,-0.33267 0.33546,-0.333 0.33546,-0.33333 0.33546,-0.33363 0.33546,-0.33391 0.33546,-0.33417 0.33546,-0.33439 0.33545,-0.33461 0.33546,-0.33479 0.33546,-0.33495 0.33546,-0.3351 0.33546,-0.33521 0.33546,-0.33531 0.33546,-0.33537 0.33546,-0.33543 0.33546,-0.33545 0.33545,-0.33546 0.33546,-0.33544 0.33546,-0.33539 0.33546,-0.33533 0.33546,-0.33524 0.33546,-0.33513 0.33546,-0.33499 0.33546,-0.33484 0.33546,-0.33465 0.33545,-0.33446 0.33546,-0.33422 0.33546,-0.33398 0.33546,-0.33371 0.33546,-0.33341 0.33546,-0.3331 0.33546,-0.33275 0.33546,-0.3324 0.33546,-0.33201 0.33545,-0.3316 0.33546,-0.33117 0.33546,-0.33072 0.33546,-0.33023 0.33546,-0.32975 0.33546,-0.32922 0.33546,-0.32868 0.33546,-0.32811 0.33546,-0.32753 0.33545,-0.32691 0.33546,-0.32628 0.33546,-0.32563 0.33546,-0.32495 0.33546,-0.32425 0.33546,-0.32352 0.33546,-0.32279 0.33546,-0.32201 0.33546,-0.32123 0.33545,-0.32042 0.33546,-0.31959 0.33546,-0.31874 0.33546,-0.31786 0.33546,-0.31696 0.33546,-0.31604 0.33546,-0.31511 0.33546,-0.31414 0.33546,-0.31316 0.33545,-0.31215 0.33546,-0.31113 0.33546,-0.31008 0.33546,-0.30901 0.33546,-0.30792 0.33546,-0.30682 0.33546,-0.30568 0.33546,-0.30453 0.33546,-0.30335 0.33545,-0.30216 0.33546,-0.30095 0.33546,-0.29971 0.33546,-0.29846 0.33546,-0.29718 0.33546,-0.29589 0.33546,-0.29457 0.33546,-0.29323 0.33546,-0.29187 0.33545,-0.2905 0.33546,-0.2891 0.33546,-0.28769 0.33546,-0.28625 0.33546,-0.2848 0.33546,-0.28332 0.33546,-0.28182 0.33546,-0.28032 0.33546,-0.27878 0.33545,-0.27723 0.33546,-0.27565 0.33546,-0.27407 0.33546,-0.27247 0.33546,-0.27083 0.33546,-0.26919 0.33546,-0.26753 0.33546,-0.26584 0.33546,-0.26414 0.33545,-0.26243 0.33546,-0.26069 0.33546,-0.25894 0.33546,-0.25717 0.33546,-0.25537 0.33546,-0.25357 0.33546,-0.25175 0.33546,-0.2499 0.33546,-0.24805 0.33545,-0.24617 0.33546,-0.24429 0.33546,-0.24237 0.33546,-0.24044 0.33546,-0.23851 0.33546,-0.23655 0.33546,-0.23457 0.33546,-0.23259 0.33546,-0.23058 0.33545,-0.22856 0.33546,-0.22652 0.33546,-0.22447 0.33546,-0.2224 0.33546,-0.22031 0.33546,-0.21822 0.33546,-0.21611 0.33546,-0.21398 0.33546,-0.21183 0.33545,-0.20968 0.33546,-0.20751 0.33546,-0.20532 0.33546,-0.20312 0.33546,-0.20091 0.33546,-0.19869 0.33546,-0.19644 0.33546,-0.19419 0.33546,-0.19192 0.33545,-0.18964 0.33546,-0.18734 0.33546,-0.18505 0.33546,-0.18272 0.33546,-0.18039 0.33546,-0.17805 0.33546,-0.17569 0.33546,-0.17332 0.33546,-0.17095 0.33545,-0.16855 0.33546,-0.16615 0.33546,-0.16374 0.33546,-0.16131 0.33546,-0.15887 0.33546,-0.15643 0.33546,-0.15397 0.33546,-0.1515 0.33546,-0.14903 0.33545,-0.14653 0.33546,-0.14404 0.33546,-0.14152 0.33546,-0.13901 0.33546,-0.13648 0.33546,-0.13394 0.33546,-0.1314 0.33546,-0.12884 0.33546,-0.12628 0.33545,-0.1237 0.33546,-0.12113 0.33546,-0.11853 0.33546,-0.11594 0.33546,-0.11333 0.33546,-0.11072 0.33546,-0.10809 0.33546,-0.10547 0.33546,-0.10283 0.33545,-0.10019 0.33546,-0.0976 0.33546,-0.0949 0.33546,-0.0922 0.33546,-0.0895 0.33546,-0.0869 0.33546,-0.0842 0.33546,-0.0815 0.33546,-0.0788 0.33545,-0.0761 0.33546,-0.0734 0.33546,-0.0707 0.33546,-0.068 0.33546,-0.0653 0.33546,-0.0626 0.33546,-0.0598 0.33546,-0.0571 0.33546,-0.0544 0.33545,-0.0516 0.33546,-0.0489 0.33546,-0.0462 0.33546,-0.0434 0.33546,-0.0406 0.33546,-0.0379 0.33546,-0.0351 0.33546,-0.0324 0.33546,-0.0296 0.33545,-0.0269 0.33546,-0.0241 0.33546,-0.0213 0.33546,-0.0186 0.33546,-0.0158 0.33546,-0.013 0.33546,-0.0103 0.33546,-0.007 0.33546,-0.005 0.33545,-0.002 0.33546,6.7e-4 0.33546,0.004 0.33546,0.006 0.33546,0.009 0.33546,0.0119 0.33546,0.0147 0.33546,0.0175 0.33545,0.0202 0.33546,0.023 0.33546,0.0258 0.33546,0.0285 0.33546,0.0313 0.33546,0.034 0.33546,0.0368 0.33546,0.0396 0.33546,0.0423 0.33545,0.0451 0.33546,0.0478 0.33546,0.0506 0.33546,0.0533 0.33546,0.056 0.33546,0.0588 0.33546,0.0615 0.33546,0.0642 0.33546,0.0669 0.33545,0.0696 0.33546,0.0723 0.33546,0.075 0.33546,0.0778 0.33546,0.0804 0.33546,0.0831 0.33546,0.0858 0.33546,0.0885 0.33546,0.0912 0.33545,0.0938 0.33546,0.0965 0.33546,0.0991 0.33546,0.10179 0.33546,0.10442 0.33546,0.10705 0.33546,0.10967 0.33546,0.1123 0.33546,0.11489 0.33545,0.1175 0.33546,0.1201 0.33546,0.12268 0.33546,0.12525 0.33546,0.12782 0.33546,0.13038 0.33546,0.13293 0.33546,0.13547 0.33546,0.13801 0.33545,0.14052 0.33546,0.14304 0.33546,0.14554 0.33546,0.14803 0.33546,0.15052 0.33546,0.15299 0.33546,0.15545 0.33546,0.1579 0.33546,0.16034 0.33545,0.16278 0.33546,0.16519 0.33546,0.1676 0.33546,0.16999 0.33546,0.17238 0.33546,0.17475 0.33546,0.17711 0.33546,0.17946 0.33546,0.18179 0.33545,0.18412 0.33546,0.18643 0.33546,0.18873 0.33546,0.19102 0.33546,0.19328 0.33546,0.19555 0.33546,0.19779 0.33546,0.20003 0.33546,0.20224 0.33545,0.20445 0.33546,0.20664 0.33546,0.20881 0.33546,0.21098 0.33546,0.21313 0.33546,0.21526 0.33546,0.21738 0.33546,0.21948 0.33546,0.22157 0.33545,0.22365 0.33546,0.22571 0.33546,0.22774 0.33546,0.22978 0.33546,0.23179 0.33546,0.23378 0.33546,0.23577 0.33546,0.23773 0.33546,0.23968 0.33545,0.2416 0.33546,0.24353 0.33546,0.24542 0.33546,0.2473 0.33546,0.24917 0.33546,0.25101 0.33546,0.25285 0.33546,0.25466 0.33546,0.25646 0.33545,0.25823 0.33546,0.26 0.33546,0.26173 0.33546,0.26347 0.33546,0.26517 0.33546,0.26685 0.33546,0.26853 0.33546,0.27019 0.33546,0.27181 0.33545,0.27343 0.33546,0.27503 0.33546,0.27661 0.33546,0.27816 0.33546,0.27971 0.33546,0.28122 0.33546,0.28273 0.33546,0.28421 0.33546,0.28568 0.33545,0.28711 0.33546,0.28854 0.33546,0.28995 0.33546,0.29133 0.33546,0.29269 0.33546,0.29404 0.33546,0.29536 0.33546,0.29667 0.33546,0.29795 0.33545,0.29922 0.33546,0.30046 0.33546,0.30168 0.33546,0.30288 0.33546,0.30406 0.33546,0.30523 0.33546,0.30636 0.33546,0.30749 0.33546,0.30858 0.33545,0.30966 0.33546,0.31071 0.33546,0.31175 0.33546,0.31276 0.33546,0.31375 0.33546,0.31473 0.33546,0.31567 0.33546,0.3166 0.33546,0.3175 0.33545,0.31839 0.33546,0.31925 0.33546,0.32009 0.33546,0.32091 0.33546,0.32171 0.33546,0.32248 0.33546,0.32324 0.33546,0.32396 0.33546,0.32467 0.33545,0.32536 0.33546,0.32602 0.33546,0.32667 0.33546,0.32728 0.33546,0.32788 0.33546,0.32846 0.33546,0.32901 0.33546,0.32954 0.33546,0.33004 0.33545,0.33053 0.33546,0.331 0.33546,0.33143 0.33546,0.33185 0.33546,0.33224 0.33546,0.33261 0.33546,0.33297 0.33546,0.33329 0.33546,0.33359 0.33545,0.33387 0.33546,0.33414 0.33546,0.33436 0.33546,0.33458 0.33546,0.33476 0.33546,0.33494 0.33546,0.33508 0.33546,0.33519 0.33546,0.3353 0.33545,0.33537 0.33546,0.33542 0.33546,0.33545 0.33546,0.33546 0.33546,0.33544 0.33546,0.3354 0.33546,0.33534 0.33546,0.33525 0.33546,0.33515 0.33545,0.33501 0.33546,0.33486 0.33546,0.33468 0.33546,0.33448 0.33546,0.33426 0.33546,0.33401 0.33546,0.33375 0.33546,0.33345 0.33546,0.33314 0.33545,0.3328 0.33546,0.33245 0.33546,0.33206 0.33546,0.33165 0.33546,0.33123 0.33546,0.33078 0.33546,0.33031 0.33546,0.3298 0.33545,0.3293 0.33546,0.32875 0.33546,0.32819 0.33546,0.3276 0.33546,0.327 0.33546,0.32637 0.33546,0.32571 0.33546,0.32504 0.33546,0.32434 0.33545,0.32363 0.33546,0.32288 0.33546,0.32212 0.33546,0.32134 0.33546,0.32053 0.33546,0.31969 0.33546,0.31886 0.33546,0.31797 0.33546,0.31709 0.33545,0.31616 0.33546,0.31523 0.33546,0.31427 0.33546,0.31329 0.33546,0.31229 0.33546,0.31127 0.33546,0.31022 0.33546,0.30915 0.33546,0.30807 0.33545,0.30696 0.33546,0.30584 0.33546,0.30468 0.33546,0.30351 0.33546,0.30232 0.33546,0.30111 0.33546,0.29988 0.33546,0.29863 0.33546,0.29735 0.33545,0.29605 0.33546,0.29475 0.33546,0.29341 0.33546,0.29205 0.33546,0.29069 0.33546,0.28928 0.33546,0.28788 0.33546,0.28644 0.33546,0.28499 0.33545,0.28352 0.33546,0.28203 0.33546,0.28051 0.33546,0.27898 0.33546,0.27744 0.33546,0.27587 0.33546,0.27428 0.33546,0.27268 0.33546,0.27105 0.33545,0.26941 0.33546,0.26775 0.33546,0.26607 0.33546,0.26436 0.33546,0.26266 0.33546,0.26093 0.33546,0.25916 0.33546,0.25741 0.33546,0.25561 0.33545,0.25381 0.33546,0.25199 0.33546,0.25015 0.33546,0.2483 0.33546,0.24642 0.33546,0.24454 0.33546,0.24262 0.33546,0.2407 0.33546,0.23877 0.33545,0.23681 0.33546,0.23484 0.33546,0.23285 0.33546,0.23084 0.33546,0.22883 0.33546,0.22679 0.33546,0.22475 0.33546,0.22267 0.33546,0.22059 0.33545,0.2185 0.33546,0.21639 0.33546,0.21426 0.33546,0.21212 0.33546,0.20997 0.33546,0.20779 0.33546,0.20562 0.33546,0.20341 0.33546,0.20121 0.33545,0.19898 0.33546,0.19674 0.33546,0.19448 0.33546,0.19223 0.33546,0.18994 0.33546,0.18765 0.33546,0.18535 0.33546,0.18303 0.33546,0.1807 0.33545,0.17836 0.33546,0.17601 0.33546,0.17364 0.33546,0.17126 0.33546,0.16887 0.33546,0.16647 0.33546,0.16406 0.33546,0.16163 0.33546,0.1592 0.33545,0.15675 0.33546,0.1543 0.33546,0.15183 0.33546,0.14935 0.33546,0.14687 0.33546,0.14436 0.33546,0.14186 0.33546,0.13934 0.33546,0.13682 0.33545,0.13428 0.33546,0.13174 0.33546,0.12918 0.33546,0.12661 0.33546,0.12405 0.33546,0.12147 0.33546,0.11888 0.33546,0.11628 0.33546,0.11368 0.33545,0.11106 0.33546,0.10845 0.33546,0.10582 0.33546,0.10318 0.33546,0.10054 0.33546,0.0979 0.33546,0.0952 0.33546,0.0926 0.33546,0.0899 0.33545,0.0872 0.33546,0.0846 0.33546,0.0819 0.33546,0.0792 0.33546,0.0765 0.33546,0.0738 0.33546,0.0711 0.33546,0.0684 0.33546,0.0657 0.33545,0.0629 0.33546,0.0602 0.33546,0.0575 0.33546,0.0547 0.33546,0.052 0.33546,0.0493 0.33546,0.0465 0.33546,0.0438 0.33546,0.041 0.33545,0.0383 0.33546,0.0355 0.33546,0.0327 0.33546,0.03 0.33546,0.0272 0.33546,0.0245 0.33546,0.0217 0.33546,0.0189 0.33546,0.0162 0.33545,0.0134 0.33546,0.0106 0.33546,0.008 0.33546,0.005 0.33546,0.002 0.33546,-3.4e-4 0.33546,-0.003 0.33546,-0.006 0.33546,-0.009 0.33545,-0.0115 0.33546,-0.0143 0.33546,-0.0171 0.33546,-0.0199 0.33546,-0.0226 0.33546,-0.0254 0.33546,-0.0281 0.33546,-0.0309 0.33546,-0.0337 0.33545,-0.0364 0.33546,-0.0392 0.33546,-0.0419 0.33546,-0.0447 0.33546,-0.0474 0.33546,-0.0502 0.33546,-0.0529 0.33546,-0.0557 0.33546,-0.0584 0.33545,-0.0611 0.33546,-0.0638 0.33546,-0.0666 0.33546,-0.0693 0.33546,-0.072 0.33546,-0.0747 0.33546,-0.0774 0.33546,-0.0801 0.33546,-0.0828 0.33545,-0.0855 0.33546,-0.0881 0.33546,-0.0908 0.33546,-0.0935 0.33546,-0.0961 0.33546,-0.0988 0.33546,-0.10143 0.33546,-0.10407 0.33545,-0.1067 0.33546,-0.10933 0.33546,-0.11194 0.33546,-0.11456 0.33546,-0.11715 0.33546,-0.11975 0.33546,-0.12234 0.33546,-0.12491 0.33546,-0.12748 0.33545,-0.13004 0.33546,-0.13259 0.33546,-0.13514 0.33546,-0.13767 0.33546,-0.14019 0.33546,-0.1427 0.33546,-0.14521 0.33546,-0.1477 0.33546,-0.15019 0.33545,-0.15266 0.33546,-0.15513 0.33546,-0.15758 0.33546,-0.16001 0.33546,-0.16246 0.33546,-0.16486 0.33546,-0.16728 0.33546,-0.16968 0.33546,-0.17206 0.33545,-0.17444 0.33546,-0.1768 0.33546,-0.17915 0.33546,-0.18148 0.33546,-0.18381 0.33546,-0.18613 0.33546,-0.18842 0.33546,-0.19072 0.33546,-0.19298 0.33545,-0.19525 0.33546,-0.19749 0.33546,-0.19973 0.33546,-0.20195 0.33546,-0.20416 0.33546,-0.20635 0.33546,-0.20852 0.33546,-0.2107 0.33546,-0.21284 0.33545,-0.21498 0.33546,-0.2171 0.33546,-0.2192 0.33546,-0.2213 0.33546,-0.22337 0.33546,-0.22543 0.33546,-0.22748 0.33546,-0.22951 0.33546,-0.23152 0.33545,-0.23352 0.33546,-0.23551 0.33546,-0.23747 0.33546,-0.23942 0.33546,-0.24135 0.33546,-0.24327 0.33546,-0.24517 0.33546,-0.24705 0.33546,-0.24893 0.33545,-0.25077 0.33546,-0.2526 0.33546,-0.25442 0.33546,-0.25622 0.33546,-0.258 0.33546,-0.25976 0.33546,-0.26151 0.33546,-0.26323 0.33546,-0.26495 0.33545,-0.26663 0.33546,-0.26831 0.33546,-0.26997 0.33546,-0.27159 0.33546,-0.27322 0.33546,-0.27482 0.33546,-0.2764 0.33546,-0.27796 0.33546,-0.2795 0.33545,-0.28103 0.33546,-0.28252 0.33546,-0.28402 0.33546,-0.28548 0.33546,-0.28693 0.33546,-0.28835 0.33546,-0.28976 0.33546,-0.29115 0.33546,-0.29251 0.33545,-0.29386 0.33546,-0.29519 0.33546,-0.2965 0.33546,-0.29778 0.33546,-0.29905 0.33546,-0.30029 0.33546,-0.30152 0.33546,-0.30273 0.33546,-0.3039 0.33545,-0.30507 0.33546,-0.30622 0.33546,-0.30734 0.33546,-0.30843 0.33546,-0.30952 0.33546,-0.31058 0.33546,-0.31161 0.33546,-0.31262 0.33546,-0.31363 0.33545,-0.31459 0.33546,-0.31555 0.33546,-0.31648 0.33546,-0.31738 0.33546,-0.31828 0.33546,-0.31914 0.33546,-0.31998 0.33546,-0.3208 0.33546,-0.3216 0.33545,-0.32238 0.33546,-0.32313 0.33546,-0.32387 0.33546,-0.32459 0.33546,-0.32526 0.33546,-0.32594 0.33546,-0.32658 0.33546,-0.3272 0.33546,-0.32781 0.33545,-0.32838 0.33546,-0.32894 0.33546,-0.32946 0.33546,-0.32998 0.33546,-0.33047 0.33546,-0.33093 0.33546,-0.33138 0.33546,-0.33179 0.33546,-0.3322 0.33545,-0.33256 0.33546,-0.33292 0.33546,-0.33325 0.33546,-0.33355 0.33546,-0.33384 0.33546,-0.3341 0.33546,-0.33433 0.33546,-0.33455 0.33546,-0.33475 0.33545,-0.33491 0.33546,-0.33506 0.33546,-0.33518 0.33546,-0.33529 0.33546,-0.33536 0.33546,-0.33542 0.33546,-0.33544 0.33546,-0.33546 0.33546,-0.33545 0.33545,-0.3354 0.33546,-0.33535 0.33546,-0.33527 0.33546,-0.33516 0.33546,-0.33503 0.33546,-0.33488 0.33546,-0.3347 0.33546,-0.33451 0.33546,-0.33429 0.33545,-0.33405 0.33546,-0.33378 0.33546,-0.33349 0.33546,-0.33319 0.33546,-0.33285 0.33546,-0.33249 0.33546,-0.33211 0.33546,-0.33171 0.33546,-0.33129 0.33545,-0.33084 0.33546,-0.33037 0.33546,-0.32987 0.33546,-0.32937 0.33546,-0.32882 0.33546,-0.32827 0.33546,-0.32768 0.33546,-0.32708 0.33546,-0.32645 0.33545,-0.3258 0.33546,-0.32513 0.33546,-0.32444 0.33546,-0.32372 0.33546,-0.32298 0.33546,-0.32223 0.33546,-0.32144 0.33546,-0.32064 0.33546,-0.31981 0.33545,-0.31896 0.33546,-0.31809 0.33546,-0.31721 0.33546,-0.31629 0.33546,-0.31535 0.33546,-0.3144 0.33546,-0.31342 0.33546,-0.31243 0.33546,-0.3114 0.33545,-0.31036 0.33546,-0.3093 0.33546,-0.30821 0.33546,-0.30711 0.33546,-0.30598 0.33546,-0.30484 0.33546,-0.30367 0.33546,-0.30248 0.33546,-0.30127 0.33545,-0.30004 0.33546,-0.29879 0.33546,-0.29753 0.33546,-0.29623 0.33546,-0.29492 0.33546,-0.29359 0.33546,-0.29223 0.33546,-0.29087 0.33545,-0.28947 0.33546,-0.28807 0.33546,-0.28663 0.33546,-0.28519 0.33546,-0.28371 0.33546,-0.28222 0.33546,-0.28072 0.33546,-0.27919 0.33546,-0.27764 0.33545,-0.27608 0.33546,-0.27449 0.33546,-0.27289 0.33546,-0.27127 0.33546,-0.26963 0.33546,-0.26797 0.33546,-0.26629 0.33546,-0.2646 0.33546,-0.26288 0.33545,-0.26116 0.33546,-0.2594 0.33546,-0.25764 0.33546,-0.25585 0.33546,-0.25405 0.33546,-0.25223 0.33546,-0.2504 0.33546,-0.24854 0.33546,-0.24668 0.33545,-0.24478 0.33546,-0.24288 0.33546,-0.24096 0.33546,-0.23902 0.33546,-0.23708 0.33546,-0.2351 0.33546,-0.23311 0.33546,-0.23111 0.33546,-0.2291 0.33545,-0.22706 0.33546,-0.22502 0.33546,-0.22295 0.33546,-0.22087 0.33546,-0.21877 0.33546,-0.21667 0.33546,-0.21455 0.33546,-0.2124 0.33546,-0.21026 0.33545,-0.20808 0.33546,-0.2059 0.33546,-0.20372 0.33546,-0.20149 0.33546,-0.19928 0.33546,-0.19704 0.33546,-0.19478 0.33546,-0.19253 0.33546,-0.19024 0.33545,-0.18796 0.33546,-0.18565 0.33546,-0.18335 0.33546,-0.18101 0.33546,-0.17866 0.33546,-0.17632 0.33546,-0.17396 0.33546,-0.17157 0.33546,-0.16919 0.33545,-0.16679 0.33546,-0.16438 0.33546,-0.16196 0.33546,-0.15952 0.33546,-0.15708 0.33546,-0.15462 0.33546,-0.15216 0.33546,-0.14968 0.33546,-0.1472 0.33545,-0.1447 0.33546,-0.14219 0.33546,-0.13968 0.33546,-0.13715 0.33546,-0.13462 0.33546,-0.13207 0.33546,-0.12952 0.33546,-0.12696 0.33546,-0.12439 0.33545,-0.12181 0.33546,-0.11922 0.33546,-0.11663 0.33546,-0.11402 0.33546,-0.11141 0.33546,-0.10879 0.33546,-0.10617 0.33546,-0.10354 0.33546,-0.10089 0.33545,-0.0982 0.33546,-0.0956 0.33546,-0.0929 0.33546,-0.0903 0.33546,-0.0876 0.33546,-0.0849 0.33546,-0.0822 0.33546,-0.0795 0.33546,-0.0768 0.33545,-0.0741 0.33546,-0.0714 0.33546,-0.0687 0.33546,-0.066 0.33546,-0.0633 0.33546,-0.0606 0.33546,-0.0578 0.33546,-0.0551 0.33546,-0.0524 0.33545,-0.0496 0.33546,-0.0469 0.33546,-0.0441 0.33546,-0.0414 0.33546,-0.0386 0.33546,-0.0359 0.33546,-0.0331 0.33546,-0.0304 0.33546,-0.0276 0.33545,-0.0248 0.33546,-0.0221 0.33546,-0.0193 0.33546,-0.0165 0.33546,-0.0138 0.33546,-0.011 0.33546,-0.008 0.33546,-0.005 0.33546,-0.003 0.33545,10e-5 0.33546,0.003 0.33546,0.006 0.33546,0.008 0.33546,0.0112 0.33546,0.0139 0.33546,0.0167 0.33546,0.0195 0.33546,0.0223 0.33545,0.025 0.33546,0.0278 0.33546,0.0306 0.33546,0.0333 0.33546,0.0361 0.33546,0.0388 0.33546,0.0416 0.33546,0.0443 0.33546,0.0471 0.33545,0.0498 0.33546,0.0526 0.33546,0.0553 0.33546,0.058 0.33546,0.0608 0.33546,0.0635 0.33546,0.0662 0.33546,0.0689 0.33546,0.0716 0.33545,0.0743 0.33546,0.077 0.33546,0.0797 0.33546,0.0824 0.33546,0.0851 0.33546,0.0878 0.33546,0.0904 0.33546,0.0931 0.33546,0.0958 0.33545,0.0984 0.33546,0.10108 0.33546,0.10372 0.33546,0.10635 0.33546,0.10898 0.33546,0.1116 0.33546,0.11421 0.33546,0.11681 0.33546,0.11941 0.33545,0.12199 0.33546,0.12457 0.33546,0.12714 0.33546,0.1297 0.33546,0.13226 0.33546,0.1348 0.33546,0.13733 0.33546,0.13985 0.33546,0.14237 0.33545,0.14488 0.33546,0.14738 0.33546,0.14985 0.33546,0.15234 0.33546,0.15479 0.33546,0.15726 0.33546,0.15969 0.33546,0.16213 0.33546,0.16455 0.33545,0.16696 0.33546,0.16936 0.33546,0.17174 0.33546,0.17413 0.33546,0.17648 0.33546,0.17884 0.33546,0.18118 0.33546,0.1835 0.33546,0.18582 0.33545,0.18812 0.33546,0.19041 0.33546,0.19268 0.33546,0.19495 0.33546,0.1972 0.33546,0.19943 0.33546,0.20166 0.33546,0.20386 0.33545,0.20606 0.33546,0.20824 0.33546,0.21041 0.33546,0.21256 0.33546,0.21469 0.33546,0.21682 0.33546,0.21893 0.33546,0.22102 0.33546,0.2231 0.33545,0.22516 0.33546,0.2272 0.33546,0.22924 0.33546,0.23126 0.33546,0.23325 0.33546,0.23524 0.33546,0.23721 0.33546,0.23917 0.33546,0.24109 0.33545,0.24302 0.33546,0.24492 0.33546,0.2468 0.33546,0.24868 0.33546,0.25053 0.33546,0.25236 0.33546,0.25418 0.33546,0.25598 0.33546,0.25776 0.33545,0.25953 0.33546,0.26128 0.33546,0.263 0.33546,0.26472 0.33546,0.26642 0.33546,0.26808 0.33546,0.26975 0.33546,0.27138 0.33546,0.27301 0.33545,0.2746 0.33546,0.27619 0.33546,0.27776 0.33546,0.27929 0.33546,0.28083 0.33546,0.28233 0.33546,0.28382 0.33546,0.28529 0.33546,0.28673 0.33545,0.28817 0.33546,0.28957 0.33546,0.29096 0.33546,0.29234 0.33546,0.29368 0.33546,0.29502 0.33546,0.29632 0.33546,0.29761 0.33546,0.29888 0.33545,0.30013 0.33546,0.30136 0.33546,0.30257 0.33546,0.30375 0.33546,0.30492 0.33546,0.30606 0.33546,0.30719 0.33546,0.30829 0.33546,0.30938 0.33545,0.31043 0.33546,0.31148 0.33546,0.31249 0.33546,0.3135 0.33546,0.31446 0.33546,0.31542 0.33546,0.31636 0.33546,0.31727 0.33546,0.31815 0.33545,0.31903 0.33546,0.31987 0.33546,0.32069 0.33546,0.3215 0.33546,0.32228 0.33546,0.32303 0.33546,0.32378 0.33546,0.32448 0.33546,0.32518 0.33545,0.32585 0.33546,0.3265 0.33546,0.32712 0.33546,0.32773 0.33546,0.3283 0.33546,0.32887 0.33546,0.3294 0.33546,0.32991 0.33546,0.3304 0.33545,0.33087 0.33546,0.33132 0.33546,0.33174 0.33546,0.33214 0.33546,0.33252 0.33546,0.33287 0.33546,0.33321 0.33546,0.33351 0.33546,0.3338 0.33545,0.33407 0.33546,0.33431 0.33546,0.33452 0.33546,0.33472 0.33546,0.33489 0.33546,0.33504 0.33546,0.33517 0.33546,0.33527 0.33546,0.33535 0.33545,0.33542 0.33546,0.33544 0.33546,0.33546 0.33546,0.33545 0.33546,0.33541 0.33546,0.33536 0.33546,0.33527 0.33546,0.33518 0.33546,0.33505 0.33545,0.3349 0.33546,0.33473 0.33546,0.33454 0.33546,0.33432 0.33546,0.33408 0.33546,0.33382 0.33546,0.33353 0.33546,0.33322 0.33546,0.3329 0.33545,0.33254 0.33546,0.33216 0.33546,0.33177"
     stroke-linecap="round"
     stroke-linejoin="round"
     stroke-miterlimit="10"
     stroke-width="5.36734"
     id="path1-3"
     style="stroke-width:22.65140998;stroke-dasharray:none;stroke:#ffffff;stroke-opacity:1"
     transform="matrix(1.0761361,0,0,1.0761361,-30.454426,9.7867215)" /><path
     fill="none"
     stroke="#02063b"
     paint-order="fill stroke markers"
     d="m 145.08927,540.87883 0.33563,0.49107 0.33563,0.48941 0.33563,0.48769 0.33563,0.48589 0.33563,0.48402 0.33562,0.48206 0.33563,0.48004 0.33563,0.47795 0.33563,0.47576 0.33563,0.47351 0.33563,0.47119 0.33563,0.46879 0.33563,0.46632 0.33563,0.46377 0.33563,0.46116 0.33563,0.45847 0.33563,0.45572 0.33563,0.45287 0.33563,0.44998 0.33563,0.44701 0.33563,0.44396 0.33563,0.44085 0.33563,0.43767 0.33563,0.43443 0.33563,0.4311 0.33563,0.42773 0.33563,0.42426 0.33563,0.42076 0.33563,0.41717 0.33563,0.41353 0.33563,0.4098 0.33563,0.40604 0.33563,0.40219 0.33563,0.39829 0.33563,0.39433 0.33562,0.39029 0.33563,0.38622 0.33563,0.38206 0.33563,0.37785 0.33563,0.37359 0.33563,0.36926 0.33563,0.36488 0.33563,0.36044 0.33563,0.35594 0.33563,0.35139 0.33563,0.34679 0.33563,0.34212 0.33563,0.33741 0.33563,0.33264 0.33563,0.32782 0.33563,0.32295 0.33563,0.31803 0.33563,0.31306 0.33563,0.30804 0.33563,0.30298 0.33563,0.29786 0.33563,0.2927 0.33563,0.28749 0.33563,0.28223 0.33563,0.27694 0.33563,0.2716 0.33563,0.26622 0.33563,0.2608 0.33563,0.25533 0.33563,0.24983 0.33563,0.24429 0.33563,0.2387 0.33563,0.23309 0.33563,0.22743 0.33563,0.22174 0.33563,0.21602 0.33563,0.21025 0.33563,0.20446 0.33563,0.19864 0.33563,0.19278 0.33563,0.1869 0.33563,0.18099 0.33563,0.17504 0.33562,0.16907 0.33563,0.16308 0.33563,0.15705 0.33563,0.15102 0.33563,0.14494 0.33563,0.13884 0.33563,0.13273 0.33563,0.1266 0.33563,0.12044 0.33563,0.11428 0.33563,0.10807 0.33563,0.10187 0.33563,0.0956 0.33563,0.0894 0.33563,0.0832 0.33563,0.0769 0.33563,0.0706 0.33563,0.0643 0.33563,0.058 0.33563,0.0517 0.33563,0.0454 0.33563,0.039 0.33563,0.0328 0.33563,0.0264 0.33563,0.02 0.33563,0.0137 0.33563,0.007 0.33563,8e-4 0.33563,-0.006 0.33562,-0.0116 0.33563,-0.018 0.33563,-0.0243 0.33563,-0.0307 0.33563,-0.037 0.33563,-0.0433 0.33563,-0.0496 0.33563,-0.056 0.33563,-0.0623 0.33563,-0.0685 0.33563,-0.0749 0.33563,-0.0811 0.33563,-0.0874 0.33563,-0.0936 0.33563,-0.0998 0.33563,-0.10605 0.33563,-0.11225 0.33563,-0.11842 0.33563,-0.12458 0.33563,-0.13073 0.33563,-0.13685 0.33563,-0.14294 0.33563,-0.14903 0.33563,-0.15508 0.33563,-0.1611 0.33563,-0.16711 0.33563,-0.17309 0.33563,-0.17905 0.33563,-0.18496 0.33563,-0.19087 0.33562,-0.19672 0.33563,-0.20256 0.33563,-0.20837 0.33563,-0.21413 0.33563,-0.21986 0.33563,-0.22558 0.33563,-0.23123 0.33563,-0.23687 0.33563,-0.24246 0.33563,-0.24802 0.33563,-0.25354 0.33563,-0.25901 0.33563,-0.26445 0.33563,-0.26984 0.33563,-0.2752 0.33563,-0.28051 0.33563,-0.28577 0.33563,-0.291 0.33563,-0.29618 0.33563,-0.3013 0.33563,-0.30639 0.33563,-0.31142 0.33563,-0.3164 0.33563,-0.32136 0.33563,-0.32623 0.33563,-0.33107 0.33563,-0.33585 0.33563,-0.34058 0.33563,-0.34527 0.33562,-0.34989 0.33563,-0.35445 0.33563,-0.35898 0.33563,-0.36343 0.33563,-0.36783 0.33563,-0.37219 0.33563,-0.37645 0.33563,-0.3807 0.33563,-0.38485 0.33563,-0.38897 0.33563,-0.39301 0.33563,-0.397 0.33563,-0.40093 0.33563,-0.40477 0.33563,-0.40859 0.33563,-0.41232 0.33563,-0.41598 0.33563,-0.41959 0.33563,-0.42312 0.33563,-0.4266 0.33563,-0.43001 0.33563,-0.43334 0.33563,-0.43662 0.33563,-0.43981 0.33563,-0.44296 0.33563,-0.44601 0.33563,-0.44901 0.33563,-0.45194 0.33563,-0.4548 0.33563,-0.45757 0.33562,-0.46029 0.33564,-0.46293 0.33563,-0.46549 0.33562,-0.46799 0.33563,-0.47041 0.33564,-0.47276 0.33562,-0.47504 0.33563,-0.47722 0.33564,-0.47936 0.33562,-0.48142 0.33563,-0.48338 0.33563,-0.48529 0.33563,-0.48711 0.33563,-0.48886 0.33563,-0.49053 0.33563,-0.49212 0.33563,-0.49365 0.33563,-0.49508 0.33563,-0.49645 0.33563,-0.49773 0.33563,-0.49895 0.33563,-0.50007 0.33563,-0.50112 0.33563,-0.50211 0.33563,-0.50299 0.33563,-0.50381 0.33562,-0.50454 0.33564,-0.50522 0.33563,-0.50579 0.33562,-0.50628 0.33564,-0.50672 0.33562,-0.50706 0.33563,-0.50732 0.33564,-0.50749 0.33562,-0.50761 0.33563,-0.50764 0.33564,-0.50758 0.33562,-0.50746 0.33563,-0.50723 0.33563,-0.50694 0.33563,-0.50658 0.33563,-0.50613 0.33563,-0.5056 0.33563,-0.50499 0.33563,-0.5043 0.33563,-0.50354 0.33563,-0.50269 0.33563,-0.50177 0.33563,-0.50077 0.33563,-0.49969 0.33563,-0.49854 0.33562,-0.4973 0.33564,-0.49598 0.33563,-0.4946 0.33562,-0.49313 0.33564,-0.49158 0.33563,-0.48997 0.33562,-0.48826 0.33564,-0.48648 0.33563,-0.48464 0.33562,-0.48272 0.33563,-0.48071 0.33564,-0.47863 0.33562,-0.47648 0.33563,-0.47427 0.33564,-0.47195 0.33562,-0.46959 0.33563,-0.46714 0.33564,-0.46461 0.33562,-0.46203 0.33563,-0.45936 0.33563,-0.45662 0.33563,-0.45381 0.33563,-0.45093 0.33563,-0.44799 0.33563,-0.44497 0.33563,-0.44188 0.33563,-0.43872 0.33563,-0.43549 0.33563,-0.4322 0.33563,-0.42883 0.33563,-0.42542 0.33563,-0.4219 0.33562,-0.41836 0.33564,-0.41472 0.33563,-0.41103 0.33562,-0.40728 0.33564,-0.40346 0.33563,-0.39958 0.33562,-0.39563 0.33564,-0.39162 0.33563,-0.38756 0.33562,-0.38342 0.33563,-0.37924 0.33563,-0.37499 0.33563,-0.37069 0.33563,-0.36632 0.33563,-0.3619 0.33563,-0.35742 0.33563,-0.35288 0.33563,-0.34831 0.33563,-0.34364 0.33563,-0.33896 0.33563,-0.33421 0.33563,-0.32941 0.33563,-0.32455 0.33563,-0.31965 0.33563,-0.31469 0.33563,-0.30969 0.33563,-0.30464 0.33563,-0.29954 0.33563,-0.29439 0.33563,-0.2892 0.33563,-0.28397 0.33562,-0.27867 0.33563,-0.27336 0.33564,-0.26798 0.33562,-0.26258 0.33563,-0.25713 0.33564,-0.25163 0.33562,-0.2461 0.33563,-0.24054 0.33564,-0.23493 0.33562,-0.22929 0.33563,-0.2236 0.33564,-0.2179 0.33562,-0.21214 0.33563,-0.20636 0.33563,-0.20055 0.33563,-0.19471 0.33563,-0.18882 0.33563,-0.18293 0.33563,-0.17699 0.33563,-0.17104 0.33563,-0.16504 0.33563,-0.15903 0.33563,-0.15299 0.33562,-0.14693 0.33564,-0.14084 0.33563,-0.13474 0.33562,-0.12861 0.33564,-0.12246 0.33563,-0.11629 0.33562,-0.11011 0.33564,-0.1039 0.33563,-0.0977 0.33562,-0.0915 0.33564,-0.0852 0.33563,-0.079 0.33562,-0.0726 0.33563,-0.0664 0.33564,-0.0601 0.33562,-0.0538 0.33563,-0.0474 0.33564,-0.0411 0.33562,-0.0348 0.33563,-0.0285 0.33563,-0.0221 0.33563,-0.0158 0.33563,-0.009 0.33563,-0.003 0.33563,0.003 0.33563,0.01 0.33563,0.0159 0.33563,0.0223 0.33563,0.0286 0.33563,0.0349 0.33563,0.0413 0.33563,0.0476 0.33563,0.0539 0.33563,0.0602 0.33563,0.0665 0.33562,0.0728 0.33564,0.079 0.33563,0.0853 0.33562,0.0916 0.33564,0.0978 0.33563,0.10402 0.33562,0.11022 0.33564,0.1164 0.33562,0.12257 0.33563,0.12872 0.33564,0.13484 0.33562,0.14095 0.33563,0.14704 0.33563,0.1531 0.33563,0.15913 0.33563,0.16516 0.33563,0.17113 0.33563,0.1771 0.33563,0.18303 0.33563,0.18893 0.33563,0.19481 0.33563,0.20066 0.33563,0.20646 0.33563,0.21225 0.33563,0.21799 0.33563,0.22371 0.33563,0.22939 0.33563,0.23503 0.33562,0.24063 0.33564,0.2462 0.33563,0.25173 0.33562,0.25722 0.33564,0.26267 0.33563,0.26809 0.33562,0.27346 0.33563,0.27877 0.33564,0.28406 0.33562,0.28929 0.33563,0.29448 0.33564,0.29963 0.33562,0.30473 0.33563,0.30977 0.33564,0.31478 0.33562,0.31974 0.33563,0.32464 0.33564,0.3295 0.33562,0.33429 0.33563,0.33904 0.33563,0.34374 0.33563,0.34837 0.33563,0.35298 0.33563,0.3575 0.33563,0.36198 0.33563,0.36639 0.33563,0.37076 0.33563,0.37508 0.33563,0.37931 0.33562,0.38349 0.33564,0.38764 0.33563,0.39169 0.33562,0.3957 0.33564,0.39965 0.33563,0.40352 0.33562,0.40734 0.33564,0.4111 0.33563,0.41479 0.33562,0.41841 0.33564,0.42199 0.33563,0.42546 0.33562,0.4289 0.33563,0.43226 0.33563,0.43555 0.33563,0.43878 0.33563,0.44193 0.33563,0.44502 0.33563,0.44804 0.33563,0.45099 0.33563,0.45387 0.33563,0.45666 0.33563,0.45941 0.33563,0.46207 0.33563,0.46466 0.33563,0.46718 0.33563,0.46963 0.33563,0.472 0.33563,0.4743 0.33563,0.47652 0.33563,0.47867 0.33563,0.48075 0.33563,0.48275 0.33563,0.48467 0.33562,0.48652 0.33563,0.4883 0.33564,0.48999 0.33562,0.49161 0.33563,0.49315 0.33564,0.49462 0.33562,0.49601 0.33563,0.49733 0.33564,0.49855 0.33562,0.49971 0.33563,0.50079 0.33564,0.50179 0.33562,0.50271 0.33563,0.50355 0.33563,0.50432 0.33563,0.505 0.33563,0.50561 0.33563,0.50613 0.33563,0.50658 0.33563,0.50696 0.33563,0.50724 0.33563,0.50745 0.33563,0.50759 0.33562,0.50763 0.33564,0.50761 0.33563,0.5075 0.33562,0.50732 0.33564,0.50705 0.33563,0.50671 0.33562,0.50627 0.33564,0.50579 0.33563,0.50519 0.33562,0.50454 0.33564,0.5038 0.33563,0.50298 0.33562,0.50208 0.33563,0.5011 0.33564,0.50006 0.33562,0.49892 0.33563,0.49771 0.33564,0.49643 0.33562,0.49506 0.33563,0.49361 0.33563,0.4921 0.33563,0.4905 0.33563,0.48883 0.33563,0.48708 0.33563,0.48525 0.33563,0.48335 0.33563,0.48138 0.33563,0.47932 0.33563,0.4772 0.33563,0.47499 0.33563,0.47272 0.33563,0.47037 0.33563,0.46794 0.33563,0.46545 0.33563,0.46288 0.33562,0.46025 0.33564,0.45752 0.33563,0.45474 0.33562,0.45189 0.33564,0.44896 0.33563,0.44596 0.33562,0.4429 0.33564,0.43976 0.33562,0.43656 0.33563,0.43329 0.33563,0.42994 0.33563,0.42653 0.33563,0.42308 0.33563,0.41952 0.33563,0.41592 0.33563,0.41225 0.33563,0.4085 0.33563,0.40472 0.33563,0.40086 0.33563,0.39692 0.33563,0.39295 0.33563,0.38889 0.33563,0.38479 0.33563,0.38061 0.33563,0.37639 0.33563,0.3721 0.33563,0.36776 0.33563,0.36335 0.33562,0.35889 0.33564,0.35438 0.33563,0.34981 0.33562,0.34517 0.33563,0.34051 0.33564,0.33577 0.33562,0.33098 0.33563,0.32615 0.33564,0.32126 0.33562,0.31632 0.33563,0.31133 0.33564,0.3063 0.33562,0.30121 0.33563,0.29609 0.33564,0.2909 0.33562,0.28568 0.33563,0.28042 0.33563,0.2751 0.33563,0.26975 0.33563,0.26435 0.33563,0.25892 0.33563,0.25343 0.33563,0.24792 0.33563,0.24237 0.33563,0.23676 0.33563,0.23114 0.33562,0.22547 0.33564,0.21977 0.33563,0.21403 0.33562,0.20826 0.33564,0.20245 0.33563,0.19663 0.33562,0.19075 0.33564,0.18486 0.33563,0.17895 0.33562,0.17297 0.33564,0.16701 0.33563,0.161 0.33562,0.15498 0.33563,0.14891 0.33564,0.14284 0.33562,0.13674 0.33563,0.13062 0.33563,0.12447 0.33563,0.11831 0.33563,0.11214 0.33563,0.10594 0.33563,0.0997 0.33563,0.0935 0.33563,0.0872 0.33563,0.081 0.33563,0.0747 0.33563,0.0685 0.33563,0.0621 0.33563,0.0559 0.33563,0.0495 0.33563,0.0432 0.33563,0.0369 0.33563,0.0305 0.33563,0.0242 0.33563,0.0179 0.33562,0.0115 0.33564,0.005 0.33563,-8e-4 0.33562,-0.007 0.33564,-0.0138 0.33562,-0.0202 0.33563,-0.0265 0.33564,-0.0329 0.33562,-0.0392 0.33563,-0.0455 0.33564,-0.0518 0.33562,-0.0581 0.33563,-0.0644 0.33563,-0.0707 0.33563,-0.077 0.33563,-0.0833 0.33563,-0.0895 0.33563,-0.0958 0.33563,-0.10198 0.33563,-0.10818 0.33563,-0.11438 0.33563,-0.12056 0.33563,-0.1267 0.33563,-0.13284 0.33563,-0.13896 0.33562,-0.14504 0.33564,-0.15112 0.33563,-0.15716 0.33562,-0.16319 0.33564,-0.16917 0.33563,-0.17516 0.33562,-0.18109 0.33564,-0.18699 0.33563,-0.1929 0.33562,-0.19874 0.33563,-0.20457 0.33564,-0.21035 0.33562,-0.21612 0.33563,-0.22184 0.33564,-0.22753 0.33562,-0.23319 0.33563,-0.2388 0.33564,-0.24438 0.33562,-0.24993 0.33563,-0.25543 0.33564,-0.2609 0.33562,-0.26631 0.33563,-0.2717 0.33563,-0.27704 0.33563,-0.28232 0.33563,-0.28759 0.33563,-0.29278 0.33563,-0.29796 0.33563,-0.30306 0.33563,-0.30813 0.33563,-0.31315 0.33563,-0.31812 0.33562,-0.32304 0.33564,-0.32791 0.33563,-0.33272 0.33562,-0.33749 0.33564,-0.34221 0.33563,-0.34687 0.33562,-0.35147 0.33564,-0.35603 0.33563,-0.36051 0.33562,-0.36496 0.33564,-0.36934 0.33562,-0.37367 0.33563,-0.37792 0.33563,-0.38214 0.33563,-0.38628 0.33563,-0.39037 0.33563,-0.39439 0.33563,-0.39837 0.33563,-0.40226 0.33563,-0.4061 0.33563,-0.40988 0.33563,-0.41359 0.33563,-0.41724 0.33563,-0.42081 0.33563,-0.42434 0.33563,-0.42777 0.33563,-0.43117 0.33563,-0.43448 0.33563,-0.43773 0.33563,-0.44091 0.33563,-0.44402 0.33563,-0.44705 0.33563,-0.45003 0.33563,-0.45293 0.33562,-0.45576 0.33563,-0.45852 0.33564,-0.46121 0.33562,-0.46382 0.33563,-0.46637 0.33564,-0.46883 0.33562,-0.47123 0.33563,-0.47355 0.33564,-0.47581 0.33562,-0.47797 0.33563,-0.48007 0.33564,-0.48211 0.33562,-0.48405 0.33563,-0.48592 0.33563,-0.48772 0.33563,-0.48945 0.33563,-0.49109 0.33563,-0.49265 0.33563,-0.49415 0.33563,-0.49557 0.33563,-0.4969 0.33563,-0.49816 0.33563,-0.49935 0.33562,-0.50044 0.33564,-0.50147 0.33563,-0.50241 0.33562,-0.50329 0.33564,-0.50407 0.33563,-0.50479 0.33562,-0.50542 0.33564,-0.50597 0.33563,-0.50644 0.33562,-0.50684 0.33564,-0.50716 0.33563,-0.50739 0.33562,-0.50755 0.33563,-0.50763 0.33564,-0.50763 0.33562,-0.50754 0.33563,-0.50738 0.33564,-0.50715 0.33562,-0.50683 0.33563,-0.50643 0.33563,-0.50595 0.33563,-0.5054 0.33563,-0.50476 0.33563,-0.50405 0.33563,-0.50325 0.33563,-0.50239 0.33563,-0.50143 0.33563,-0.50041 0.33563,-0.4993 0.33563,-0.49812 0.33563,-0.49685 0.33563,-0.49552 0.33563,-0.49409 0.33563,-0.49261 0.33563,-0.49103 0.33562,-0.48939 0.33564,-0.48765 0.33563,-0.48587 0.33562,-0.48397 0.33564,-0.48203 0.33562,-0.48001 0.33563,-0.4779 0.33564,-0.47573 0.33562,-0.47346 0.33563,-0.47115 0.33563,-0.46874 0.33563,-0.46628 0.33563,-0.46373 0.33563,-0.46112 0.33563,-0.45842 0.33563,-0.45566 0.33563,-0.45282 0.33563,-0.44993 0.33563,-0.44696 0.33563,-0.44391 0.33563,-0.44079 0.33563,-0.43761 0.33563,-0.43437 0.33563,-0.43105 0.33563,-0.42765 0.33562,-0.42421 0.33564,-0.42069 0.33563,-0.41711 0.33562,-0.41346 0.33564,-0.40974 0.33563,-0.40597 0.33562,-0.40212 0.33563,-0.39823 0.33564,-0.39425 0.33562,-0.39022 0.33563,-0.38614 0.33564,-0.38199 0.33562,-0.37778 0.33563,-0.37351 0.33564,-0.36918 0.33562,-0.36481 0.33563,-0.36036 0.33564,-0.35585 0.33562,-0.35132 0.33563,-0.3467 0.33563,-0.34204 0.33563,-0.33732 0.33563,-0.33256 0.33563,-0.32773 0.33563,-0.32287 0.33563,-0.31794 0.33563,-0.31297 0.33563,-0.30796 0.33563,-0.30288 0.33562,-0.29777 0.33564,-0.2926 0.33563,-0.2874 0.33562,-0.28214 0.33564,-0.27685 0.33563,-0.27151 0.33562,-0.26612 0.33564,-0.2607 0.33563,-0.25524 0.33562,-0.24972 0.33564,-0.2442 0.33563,-0.23859 0.33562,-0.23299 0.33563,-0.22733 0.33563,-0.22164 0.33563,-0.21591 0.33563,-0.21015 0.33563,-0.20436 0.33563,-0.19854 0.33563,-0.19268 0.33563,-0.18679 0.33563,-0.18088 0.33563,-0.17494 0.33563,-0.16897 0.33563,-0.16297 0.33563,-0.15694 0.33563,-0.1509 0.33563,-0.14484 0.33563,-0.13873 0.33563,-0.13263 0.33563,-0.12648 0.33563,-0.12034 0.33563,-0.11416 0.33563,-0.10797 0.33563,-0.10176 0.33562,-0.0955 0.33564,-0.0893 0.33562,-0.083 0.33563,-0.0768 0.33564,-0.0705 0.33562,-0.0642 0.33563,-0.0579 0.33564,-0.0516 0.33562,-0.0453 0.33563,-0.0389 0.33564,-0.0326 0.33562,-0.0263 0.33563,-0.02 0.33563,-0.0136 0.33563,-0.007 0.33563,-8.1e-4 0.33563,0.006 0.33563,0.0118 0.33563,0.0181 0.33563,0.0245 0.33563,0.0308 0.33563,0.0371 0.33562,0.0435 0.33564,0.0498 0.33563,0.056 0.33562,0.0624 0.33564,0.0687 0.33563,0.075 0.33562,0.0812 0.33564,0.0875 0.33563,0.0937 0.33562,0.0999 0.33564,0.10617 0.33563,0.11235 0.33562,0.11854 0.33563,0.12468 0.33564,0.13084 0.33562,0.13696 0.33563,0.14305 0.33564,0.14913 0.33562,0.15519 0.33563,0.16121 0.33564,0.16722 0.33562,0.1732 0.33563,0.17915 0.33563,0.18507 0.33563,0.19097 0.33563,0.19682 0.33563,0.20267 0.33563,0.20846 0.33563,0.21424 0.33563,0.21997 0.33563,0.22567 0.33563,0.23134 0.33563,0.23696 0.33563,0.24257 0.33563,0.24811 0.33562,0.25364 0.33564,0.2591 0.33563,0.26455 0.33562,0.26994 0.33564,0.27529 0.33563,0.2806 0.33562,0.28587 0.33564,0.29109 0.33562,0.29627 0.33563,0.30139 0.33564,0.30648 0.33562,0.31151 0.33563,0.3165 0.33563,0.32144 0.33563,0.32631 0.33563,0.33116 0.33563,0.33593 0.33563,0.34068 0.33563,0.34534 0.33563,0.34997 0.33563,0.35454 0.33563,0.35905 0.33563,0.36351 0.33563,0.36792 0.33563,0.37225 0.33563,0.37653 0.33563,0.38077 0.33563,0.38494 0.33563,0.38903 0.33563,0.39308 0.33563,0.39708 0.33562,0.40099 0.33564,0.40485 0.33563,0.40865 0.33562,0.41238 0.33563,0.41605 0.33564,0.41965 0.33562,0.42319 0.33563,0.42665 0.33564,0.43007 0.33562,0.43341 0.33563,0.43666 0.33564,0.43989 0.33562,0.44299 0.33563,0.44607 0.33564,0.44907 0.33562,0.452 0.33563,0.45484 0.33563,0.45762 0.33563,0.46033 0.33563,0.46298 0.33563,0.46553 0.33563,0.46804 0.33563,0.47045 0.33563,0.4728 0.33563,0.47508 0.33563,0.47727 0.33562,0.47939 0.33564,0.48146 0.33563,0.48341 0.33562,0.48532 0.33564,0.48714 0.33563,0.4889 0.33562,0.49055 0.33564,0.49216 0.33563,0.49367 0.33562,0.4951 0.33564,0.49648 0.33563,0.49775 0.33562,0.49896 0.33563,0.50009 0.33564,0.50115 0.33562,0.50212 0.33563,0.50301 0.33563,0.50382 0.33563,0.50456 0.33563,0.50522 0.33563,0.5058 0.33563,0.5063 0.33563,0.50672 0.33563,0.50706 0.33563,0.50732 0.33563,0.50751 0.33563,0.50761 0.33563,0.50764 0.33563,0.50757 0.33563,0.50745 0.33563,0.50723 0.33563,0.50695 0.33563,0.50657 0.33563,0.50611 0.33563,0.50559 0.33562,0.50497 0.33564,0.50429 0.33562,0.50353 0.33563,0.50268 0.33564,0.50175 0.33562,0.50076 0.33563,0.49967 0.33564,0.49851 0.33562,0.49728 0.33563,0.49596 0.33563,0.49457 0.33563,0.4931 0.33563,0.49156 0.33563,0.48993 0.33563,0.48823 0.33563,0.48646 0.33563,0.4846 0.33563,0.48268 0.33563,0.48068 0.33563,0.47859 0.33563,0.47646 0.33563,0.47421 0.33563,0.47191 0.33563,0.46954 0.33563,0.46709 0.33562,0.46457 0.33564,0.46198 0.33563,0.45932 0.33562,0.45657 0.33564,0.45376 0.33563,0.45088 0.33562,0.44794 0.33563,0.44491 0.33564,0.44183 0.33562,0.43866 0.33563,0.43543 0.33564,0.43215 0.33562,0.42877 0.33563,0.42535 0.33564,0.42185 0.33562,0.41829 0.33563,0.41465 0.33564,0.41097 0.33562,0.40721 0.33563,0.40339 0.33563,0.3995 0.33563,0.39556 0.33563,0.39156 0.33563,0.38748 0.33563,0.38336 0.33563,0.37916 0.33563,0.37491 0.33563,0.37061 0.33563,0.36625 0.33562,0.36181 0.33564,0.35735 0.33563,0.3528 0.33562,0.34821 0.33564,0.34358 0.33563,0.33888 0.33562,0.33411 0.33564,0.32933 0.33563,0.32446 0.33562,0.31956 0.33564,0.31461 0.33563,0.3096 0.33562,0.30455 0.33563,0.29944 0.33563,0.2943 0.33563,0.28911 0.33563,0.28387 0.33563,0.27858 0.33563,0.27326 0.33563,0.2679 0.33563,0.26248 0.33563,0.25702 0.33563,0.25154 0.33563,0.24601 0.33563,0.24044 0.33563,0.23482 0.33563,0.22919 0.33563,0.2235 0.33563,0.21779 0.33563,0.21205 0.33563,0.20625 0.33563,0.20045 0.33563,0.19461 0.33563,0.18872 0.33562,0.18281 0.33563,0.17689 0.33564,0.17093 0.33562,0.16493 0.33563,0.15893 0.33564,0.15288 0.33562,0.14682 0.33563,0.14074 0.33564,0.13463 0.33562,0.1285 0.33563,0.12235 0.33564,0.11617 0.33562,0.11 0.33563,0.1038 0.33563,0.0976 0.33563,0.0913 0.33563,0.0851 0.33563,0.0788 0.33563,0.0725 0.33563,0.0663 0.33563,0.06 0.33563,0.0537 0.33563,0.0474 0.33562,0.041 0.33564,0.0347 0.33563,0.0284 0.33562,0.0221 0.33564,0.0157 0.33563,0.009 0.33562,0.003 0.33564,-0.003 0.33563,-0.01 0.33562,-0.016 0.33564,-0.0224 0.33563,-0.0287 0.33562,-0.035 0.33563,-0.0414 0.33564,-0.0477 0.33562,-0.054 0.33563,-0.0603 0.33564,-0.0666 0.33562,-0.0729 0.33563,-0.0791 0.33563,-0.0854 0.33563,-0.0917 0.33563,-0.0979 0.33563,-0.10412 0.33563,-0.11033 0.33563,-0.11652 0.33563,-0.12267 0.33563,-0.12883 0.33563,-0.13495 0.33563,-0.14107 0.33563,-0.14714 0.33563,-0.1532 0.33563,-0.15925 0.33563,-0.16525 0.33563,-0.17125 0.33562,-0.1772 0.33564,-0.18313 0.33563,-0.18904 0.33562,-0.19492 0.33564,-0.20076 0.33562,-0.20656 0.33563,-0.21235 0.33564,-0.2181 0.33562,-0.22381 0.33563,-0.22949 0.33564,-0.23513 0.33562,-0.24073 0.33563,-0.2463 0.33563,-0.25183 0.33563,-0.25732 0.33563,-0.26277 0.33563,-0.26818 0.33563,-0.27354 0.33563,-0.27887 0.33563,-0.28415 0.33563,-0.28939 0.33563,-0.29457 0.33563,-0.29972 0.33563,-0.30481 0.33563,-0.30987 0.33563,-0.31487 0.33563,-0.31983 0.33563,-0.32472 0.33562,-0.32958 0.33564,-0.33438 0.33563,-0.33912 0.33562,-0.34383 0.33564,-0.34846 0.33563,-0.35305 0.33562,-0.35758 0.33563,-0.36206 0.33564,-0.36647 0.33562,-0.37084 0.33563,-0.37514 0.33564,-0.37939 0.33562,-0.38358 0.33563,-0.3877 0.33564,-0.39177 0.33562,-0.39577 0.33563,-0.39971 0.33564,-0.40359 0.33562,-0.40742 0.33563,-0.41116 0.33563,-0.41486 0.33563,-0.41848 0.33563,-0.42204 0.33563,-0.42553 0.33563,-0.42895 0.33563,-0.43232 0.33563,-0.43561 0.33563,-0.43883 0.33563,-0.44199 0.33562,-0.44507 0.33564,-0.4481 0.33563,-0.45104 0.33562,-0.45391 0.33564,-0.45672 0.33563,-0.45946 0.33562,-0.46212 0.33564,-0.46471 0.33563,-0.46722 0.33562,-0.46967 0.33564,-0.47204 0.33563,-0.47433 0.33562,-0.47657 0.33563,-0.47871 0.33563,-0.48078 0.33563,-0.48278 0.33563,-0.48471 0.33563,-0.48655 0.33563,-0.48833 0.33563,-0.49002 0.33563,-0.49164 0.33563,-0.49318 0.33563,-0.49464 0.33563,-0.49604 0.33563,-0.49734 0.33563,-0.49858 0.33563,-0.49974 0.33563,-0.5008 0.33563,-0.5018 0.33563,-0.50273 0.33563,-0.50356 0.33563,-0.50433 0.33563,-0.50501 0.33563,-0.50563 0.33562,-0.50614 0.33563,-0.50659 0.33564,-0.50696 0.33562,-0.50725 0.33563,-0.50745 0.33564,-0.50758 0.33562,-0.50764 0.33563,-0.50761 0.33564,-0.5075 0.33562,-0.50731 0.33563,-0.50704 0.33563,-0.5067 0.33563,-0.50627 0.33563,-0.50578 0.33563,-0.50519 0.33563,-0.50452 0.33563,-0.50378 0.33563,-0.50296 0.33563,-0.50207 0.33563,-0.50109 0.33563,-0.50004 0.33563,-0.49889 0.33563,-0.49769 0.33562,-0.49641 0.33564,-0.49503 0.33563,-0.49359 0.33562,-0.49207 0.33564,-0.49048 0.33563,-0.48879 0.33562,-0.48705 0.33564,-0.48522 0.33563,-0.48331 0.33562,-0.48134 0.33563,-0.47929 0.33564,-0.47716 0.33562,-0.47495 0.33563,-0.47268 0.33564,-0.47033 0.33562,-0.46789 0.33563,-0.46542 0.33564,-0.46283 0.33562,-0.46019 0.33563,-0.45748 0.33563,-0.45469 0.33563,-0.45183 0.33563,-0.44891 0.33563,-0.44591 0.33563,-0.44284 0.33563,-0.43971 0.33563,-0.4365 0.33563,-0.43322 0.33563,-0.42989 0.33563,-0.42648 0.33563,-0.423 0.33563,-0.41946 0.33562,-0.41585 0.33564,-0.41219 0.33563,-0.40844 0.33562,-0.40465 0.33564,-0.40078 0.33563,-0.39686 0.33562,-0.39287 0.33564,-0.38882 0.33563,-0.38472 0.33562,-0.38054 0.33564,-0.37631 0.33562,-0.37203 0.33563,-0.36767 0.33563,-0.36328 0.33563,-0.35881 0.33563,-0.3543 0.33563,-0.34972 0.33563,-0.3451 0.33563,-0.34042 0.33563,-0.33569 0.33563,-0.33089 0.33563,-0.32606 0.33563,-0.32117 0.33563,-0.31624 0.33563,-0.31124 0.33563,-0.30621 0.33563,-0.30112 0.33563,-0.29599 0.33563,-0.29081 0.33563,-0.28559 0.33563,-0.28032 0.33562,-0.27501 0.33564,-0.26965 0.33563,-0.26426 0.33562,-0.25882 0.33563,-0.25334 0.33564,-0.24782 0.33562,-0.24226 0.33563,-0.23668 0.33564,-0.23103 0.33562,-0.22537 0.33563,-0.21966 0.33564,-0.21393 0.33562,-0.20816 0.33563,-0.20235 0.33564,-0.19652 0.33562,-0.19065 0.33563,-0.18476 0.33563,-0.17883 0.33563,-0.17288 0.33563,-0.1669 0.33563,-0.16089 0.33563,-0.15486 0.33563,-0.14881 0.33563,-0.14274 0.33563,-0.13662 0.33563,-0.13051 0.33562,-0.12437 0.33564,-0.11821 0.33563,-0.11201 0.33562,-0.10583 0.33564,-0.0996 0.33563,-0.0934 0.33562,-0.0871 0.33564,-0.0809 0.33563,-0.0746 0.33562,-0.0683 0.33564,-0.062 0.33563,-0.0557 0.33562,-0.0494 0.33563,-0.0431 0.33564,-0.0368 0.33562,-0.0305 0.33563,-0.0241 0.33563,-0.0178 0.33563,-0.0115 0.33563,-0.005 0.33563,0.002 0.33563,0.008 0.33563,0.014 0.33563,0.0203 0.33563,0.0266 0.33563,0.033 0.33563,0.0393 0.33563,0.0456 0.33563,0.0519 0.33563,0.0583 0.33563,0.0645 0.33563,0.0709 0.33563,0.0771 0.33563,0.0834 0.33563,0.0896 0.33562,0.0959 0.33564,0.10209 0.33562,0.1083 0.33563,0.11448 0.33564,0.12067 0.33562,0.12681 0.33563,0.13295 0.33564,0.13907 0.33562,0.14516 0.33563,0.15122 0.33564,0.15727 0.33562,0.16329 0.33563,0.16928 0.33563,0.17526 0.33563,0.1812 0.33563,0.18711 0.33563,0.19299 0.33563,0.19885 0.33563,0.20466 0.33563,0.21046 0.33563,0.21622 0.33563,0.22194 0.33563,0.22763 0.33563,0.23329 0.33563,0.23891 0.33562,0.24447 0.33564,0.25003 0.33563,0.25553 0.33562,0.26099 0.33564,0.26641 0.33563,0.27179 0.33562,0.27713 0.33564,0.28243 0.33563,0.28768 0.33562,0.29287 0.33563,0.29805 0.33564,0.30315 0.33562,0.30822 0.33563,0.31324 0.33564,0.3182 0.33562,0.32313 0.33563,0.32799 0.33564,0.33282 0.33562,0.33758 0.33563,0.34228 0.33563,0.34695 0.33563,0.35156 0.33563,0.3561 0.33563,0.3606 0.33563,0.36503 0.33563,0.36942 0.33563,0.37374 0.33563,0.37801 0.33563,0.38221 0.33563,0.38635 0.33563,0.39045 0.33563,0.39446 0.33562,0.39843 0.33564,0.40233 0.33563,0.40617 0.33562,0.40994 0.33564,0.41365 0.33563,0.41731 0.33562,0.42088 0.33564,0.42439 0.33563,0.42784 0.33562,0.43123 0.33564,0.43454 0.33562,0.43778 0.33563,0.44096 0.33563,0.44408 0.33563,0.44711 0.33563,0.45009 0.33563,0.45297 0.33563,0.45581 0.33563,0.45857 0.33563,0.46125 0.33563,0.46388 0.33563,0.4664 0.33563,0.46888 0.33563,0.47127 0.33563,0.4736 0.33563,0.47584 0.33563,0.47801 0.33563,0.48012 0.33563,0.48213 0.33563,0.48408 0.33563,0.48596 0.33562,0.48775 0.33564,0.48948 0.33563,0.49112 0.33562,0.49268 0.33563,0.49418 0.33564,0.49558 0.33562,0.49693 0.33563,0.49819 0.33564,0.49936 0.33562,0.50045 0.33563,0.5015 0.33564,0.50243 0.33562,0.50329 0.33563,0.50409 0.33564,0.5048 0.33562,0.50543 0.33563,0.50598 0.33563,0.50646 0.33563,0.50684 0.33563,0.50716 0.33563,0.5074 0.33563,0.50755 0.33563,0.50762 0.33563,0.50763 0.33563,0.50754 0.33563,0.50739 0.33562,0.50714 0.33564,0.50682 0.33563,0.50642 0.33562,0.50594 0.33564,0.50539 0.33563,0.50475 0.33562,0.50404 0.33564,0.50324 0.33563,0.50237 0.33562,0.50141 0.33563,0.50039 0.33564,0.49928 0.33562,0.4981 0.33563,0.49683 0.33564,0.49548 0.33562,0.49407 0.33563,0.49258 0.33563,0.49101 0.33563,0.48935 0.33563,0.48763 0.33563,0.48583 0.33563,0.48395 0.33563,0.48199 0.33563,0.47997 0.33563,0.47786 0.33563,0.47568 0.33563,0.47344 0.33563,0.4711"
     stroke-linecap="round"
     stroke-linejoin="round"
     stroke-miterlimit="10"
     stroke-width="5.37007"
     id="path1-0"
     style="stroke-width:22.65140998;stroke-dasharray:none;stroke:#ffffff;stroke-opacity:1"
     transform="matrix(1.0761361,0,0,1.0761361,-30.454426,9.7867215)" /></svg>
