<?xml version="1.0" encoding="UTF-8" standalone="no"?>
<svg
   width="800"
   height="800"
   viewBox="0 0 800 800"
   version="1.1"
   id="svg4"
   sodipodi:docname="AppIconRounded.svg"
   inkscape:version="1.4 (e7c3feb1, 2024-10-09)"
   xml:space="preserve"
   xmlns:inkscape="http://www.inkscape.org/namespaces/inkscape"
   xmlns:sodipodi="http://sodipodi.sourceforge.net/DTD/sodipodi-0.dtd"
   xmlns:xlink="http://www.w3.org/1999/xlink"
   xmlns="http://www.w3.org/2000/svg"
   xmlns:svg="http://www.w3.org/2000/svg"><sodipodi:namedview
     id="namedview4"
     pagecolor="#505050"
     bordercolor="#eeeeee"
     borderopacity="1"
     inkscape:showpageshadow="0"
     inkscape:pageopacity="0"
     inkscape:pagecheckerboard="0"
     inkscape:deskcolor="#d1d1d1"
     inkscape:zoom="0.46191405"
     inkscape:cx="299.83933"
     inkscape:cy="153.70825"
     inkscape:window-width="1920"
     inkscape:window-height="977"
     inkscape:window-x="0"
     inkscape:window-y="25"
     inkscape:window-maximized="1"
     inkscape:current-layer="svg4"
     showguides="false" /><rect
     x="0"
     y="0"
     width="800"
     height="800"
     rx="0"
     fill="#1e293b"
     id="rect1"
     style="fill:url(#radialGradient2);fill-opacity:1;stroke:none;stroke-opacity:1"
     ry="209.99577" /><!-- Background: Rounded Square --><!-- Tube Line (Minimalistic Path) --><!-- Stations (Minimalistic) --><!-- Station 1 --><!-- Station 2 --><!-- Station 3 --><!-- Defining Subtle Gradient for background --><defs
     id="defs4"><linearGradient
       id="linearGradient3"
       inkscape:collect="always"><stop
         style="stop-color:#fffe08;stop-opacity:1;"
         offset="0"
         id="stop5" /><stop
         style="stop-color:#00ffff;stop-opacity:1;"
         offset="1"
         id="stop6" /></linearGradient><linearGradient
       id="linearGradient1"
       inkscape:collect="always"><stop
         style="stop-color:#4e4e4e;stop-opacity:1;"
         offset="0"
         id="stop1" /><stop
         style="stop-color:#323232;stop-opacity:1;"
         offset="1"
         id="stop2" /></linearGradient><linearGradient
       id="grad1"
       x1="0"
       y1="0"
       x2="1"
       y2="1"><stop
         offset="0%"
         style="stop-color:#334155;stop-opacity:1"
         id="stop3" /><stop
         offset="100%"
         style="stop-color:#1E293B;stop-opacity:1"
         id="stop4" /></linearGradient><radialGradient
       inkscape:collect="always"
       xlink:href="#linearGradient1"
       id="radialGradient2"
       cx="400"
       cy="400"
       fx="400"
       fy="400"
       r="400"
       gradientUnits="userSpaceOnUse" /><linearGradient
       inkscape:collect="always"
       xlink:href="#linearGradient3"
       id="linearGradient6"
       x1="400"
       y1="582.77155"
       x2="400"
       y2="142.47694"
       gradientUnits="userSpaceOnUse"
       gradientTransform="matrix(0.84012267,0,0,0.84012267,63.951195,95.370912)" /></defs><g
     id="g1"
     transform="translate(-5.9611514,27.743715)"><g
       id="g4"
       transform="translate(-96.769726,-184.61212)"
       style="fill:#000000;fill-opacity:1" /></g><g
     id="g2"
     transform="matrix(1.0761361,0,0,1.0761361,-30.454426,9.7867215)"
     style="stroke-width:21.90800959;stroke-dasharray:none" /><path
     id="path1"
     style="fill:url(#linearGradient6);stroke-width:0.840123;stroke-linecap:round;stroke-linejoin:round;stroke-miterlimit:10;paint-order:fill stroke markers"
     d="m 577.50195,209.11133 c -21.93203,0.36907 -43.71416,4.08452 -64.81664,9.96002 -10.37717,2.85925 -20.59489,6.26521 -30.73949,9.85275 -2.86741,0.87123 -5.63718,2.03571 -8.45604,3.05041 -20.19029,7.58629 -40.03604,16.04881 -60.17533,23.76768 -5.76988,2.20308 -11.5801,4.35165 -17.45406,6.39365 -4.00873,1.39457 -7.96515,2.70448 -12.03031,3.99111 -13.64608,4.28373 -27.73586,7.85094 -41.96592,9.94805 -3.90573,0.58041 -7.83113,1.05908 -11.80714,1.42192 -6.06455,0.55723 -12.30084,0.85208 -18.44921,0.84213 -1.48617,0.0137 -3.12675,-0.0351 -4.51406,-0.05 -7.75269,-0.18758 -15.49088,-0.84007 -23.17383,-1.88867 -0.96773,-0.14631 -2.24245,-0.31723 -3.20361,-0.46726 -22.38579,-3.42293 -44.0743,-10.29121 -65.23627,-18.20708 -7.7708,-2.89214 -15.45114,-5.96115 -23.19401,-9.03111 -3.39547,-1.40576 -6.9482,-3.00426 -10.71807,-2.59467 -6.39285,0.3473 -12.22835,5.14704 -13.84046,11.3384 -1.66328,5.80472 0.49152,12.46362 5.23636,16.19948 2.78026,2.22114 6.2724,3.14307 9.47388,4.53105 22.30874,8.93721 44.85225,17.50193 68.19696,23.35544 19.68981,4.98129 39.94712,7.92134 60.27737,7.98976 23.22391,0.13224 46.34821,-3.59299 68.70549,-9.73398 25.9945,-7.10937 50.97751,-17.33283 75.93793,-27.38032 16.4271,-6.61765 32.88935,-13.19342 49.72967,-18.70088 1.58071,-0.50556 3.43641,-1.1098 5.03442,-1.60636 11.06568,-3.46041 22.31335,-6.36904 33.72144,-8.45614 2.88639,-0.5225 5.97349,-1.03496 8.88901,-1.44186 6.03951,-0.86553 12.27517,-1.47309 18.24966,-1.77689 5.50602,-0.29315 11.05522,-0.35728 16.6094,-0.1722 7.84443,0.25281 15.82355,0.9867 23.64617,2.13512 3.19225,0.51173 6.50452,1.15748 9.69165,0.24919 5.09203,-1.25454 9.39607,-5.2449 10.97937,-10.25208 1.86821,-5.6433 0.16529,-12.3078 -4.31591,-16.25104 -2.70617,-2.48241 -6.30142,-3.82126 -9.92699,-4.15121 -13.33825,-2.10678 -26.85808,-3.09656 -40.36143,-2.86442 z m -23.85547,137.88476 c -8.52296,0.28415 -16.85772,2.84401 -24.36755,6.81607 -10.06214,5.29475 -18.78402,12.74223 -27.01039,20.50899 -9.28056,8.75888 -17.93432,18.17223 -27.48547,26.64491 -5.78395,5.06986 -11.93386,9.99737 -19.17616,12.8017 -4.09964,1.52922 -8.69059,1.92768 -12.90663,0.6215 -6.12575,-1.73687 -11.42657,-5.47731 -16.3692,-9.37074 -1.37576,-1.09946 -2.68077,-2.19064 -3.96165,-3.30581 -2.97633,-2.56817 -5.99812,-5.41776 -8.87609,-8.22507 -10.41431,-10.11153 -20.29853,-20.83356 -31.69126,-29.88051 -8.42315,-6.69586 -17.87746,-12.43777 -28.39633,-15.08306 -8.25654,-2.09515 -17.03645,-2.06901 -25.26986,0.12814 -10.31425,2.67176 -19.56098,8.35248 -27.85738,14.89962 -13.36631,10.6303 -24.65809,23.52935 -37.18485,35.08085 -2.99346,2.74479 -6.06953,5.40502 -9.29483,7.87513 -0.68586,0.50977 -1.59718,1.19186 -2.38942,1.74221 -3.82055,2.62078 -7.89473,5.0399 -12.40355,6.24607 -3.84588,1.01468 -7.9807,0.89634 -11.73043,-0.45557 -6.35595,-2.12958 -11.80313,-6.21868 -16.93689,-10.41533 -4.96309,-4.09829 -9.54473,-8.62632 -14.18648,-13.07637 -4.35688,-3.86928 -10.9679,-4.96038 -16.30588,-2.58814 -4.72623,2.01648 -8.34576,6.47513 -9.16909,11.56988 -0.88668,4.93357 0.79705,10.23542 4.40227,13.7268 4.00752,4.01935 8.15206,7.90523 12.41139,11.65713 8.17419,7.14004 17.11847,13.67249 27.30711,17.61365 8.35541,3.25401 17.54518,4.51806 26.43448,3.13684 10.09861,-1.50203 19.51108,-6.0493 27.79643,-11.89274 11.21245,-7.82345 20.78405,-17.66715 30.45082,-27.26213 5.5182,-5.50378 11.03281,-11.02726 16.97353,-16.08042 0.44552,-0.37927 1.03987,-0.881 1.53555,-1.28363 4.62842,-3.78963 9.57029,-7.35394 15.16728,-9.56571 3.97977,-1.5525 8.43626,-2.1044 12.59936,-0.96975 6.00103,1.4843 11.20268,5.05137 16.05914,8.74096 10.26875,8.10594 19.16126,17.74862 28.50208,26.86542 9.04411,8.84475 18.44639,17.55126 29.48158,23.87499 8.23987,4.75814 17.56062,7.87284 27.12221,8.11274 10.58571,0.31487 21.00131,-3.08778 30.07344,-8.38342 12.56801,-7.34201 23.00021,-17.65163 33.26849,-27.82869 8.15358,-8.05491 16.08638,-16.41389 25.22055,-23.38533 2.41322,-1.80891 4.91013,-3.51705 7.55431,-4.9725 0.35258,-0.18097 1.04933,-0.56102 1.54407,-0.79743 4.35025,-2.18028 9.3592,-3.48705 14.21435,-2.49234 6.08584,1.1638 11.4093,4.6173 16.30634,8.25485 7.34914,5.5943 13.93882,12.15854 20.45049,18.63029 5.95549,6.18593 11.71049,13.08457 21.16444,11.82259 5.5288,-0.95792 10.44231,-5.06765 12.10263,-10.46684 1.75914,-5.32073 0.40268,-11.58035 -3.59288,-15.55484 -2.25842,-2.34728 -4.62525,-4.58777 -6.90346,-6.91629 -9.94832,-9.91529 -20.03271,-19.92204 -31.99199,-27.42702 -8.65505,-5.40835 -18.52827,-9.23733 -28.80663,-9.66554 -1.29149,-0.0664 -2.58558,-0.0589 -3.87799,-0.0261 z m 15.20313,144.72071 c -7.69011,0.24482 -14.97629,3.6336 -20.92321,8.37167 -8.51037,6.84662 -14.91666,15.83032 -21.04418,24.76698 -5.74566,8.43356 -11.06394,17.06008 -17.28734,25.16237 -2.62404,3.3005 -5.39139,6.57868 -8.83121,9.0603 -0.70656,0.3864 -1.56468,1.16598 -2.36812,0.56051 -3.05629,-1.77231 -5.45251,-4.45313 -7.74321,-7.09761 -2.01144,-2.41177 -3.93464,-4.97171 -5.70008,-7.46957 -8.72998,-12.21417 -16.1737,-25.38941 -26.09732,-36.72055 -5.48574,-6.20764 -11.99714,-11.85194 -19.87942,-14.72232 -6.50078,-2.40103 -13.80332,-2.58436 -20.38326,-0.37623 -6.2631,2.01763 -11.76644,5.8733 -16.47237,10.40482 -7.11553,6.79239 -12.71306,14.95088 -18.22756,23.04283 -3.9566,5.88671 -7.79427,11.88547 -11.85856,17.63781 -1.61944,2.29068 -3.24655,4.49079 -4.96609,6.64961 -2.47422,3.06282 -5.09869,6.11361 -8.40679,8.30246 -0.44455,0.22351 -1.24744,0.9557 -1.84649,0.41062 -3.40315,-1.83615 -5.91819,-4.87745 -8.39013,-7.77286 -6.78167,-8.2798 -12.28513,-17.48755 -18.32975,-26.29591 -5.75659,-8.50639 -11.79104,-16.98181 -19.51143,-23.83906 -5.80694,-5.10764 -12.92998,-9.0682 -20.7159,-9.90986 -7.10994,-0.78781 -14.3803,1.06338 -20.45577,4.7812 -7.60943,4.57685 -13.59487,11.32776 -18.94093,18.31385 -7.63256,10.03232 -14.0775,20.92671 -21.4161,31.11953 -3.17154,4.30689 -6.42684,8.64656 -10.55546,12.09251 -0.88998,0.66317 -1.82023,1.38141 -2.87784,1.72221 -1.88673,-0.70133 -3.36948,-2.1692 -4.84437,-3.49405 -3.19881,-3.10983 -5.90311,-6.68423 -8.53849,-10.27131 -1.73497,-2.35089 -3.27052,-4.86104 -5.18971,-7.06855 -4.17071,-4.45322 -11.09297,-6.0365 -16.76898,-3.76612 -5.50323,2.05936 -9.53346,7.48355 -9.90911,13.34973 -0.299,4.05527 1.14162,8.11632 3.64074,11.28699 6.03255,8.69763 12.49175,17.35826 21.04084,23.75591 6.1399,4.53877 13.67159,7.50975 21.38692,7.25443 7.39209,-0.18036 14.48925,-3.20681 20.30424,-7.66931 7.54874,-5.72465 13.38726,-13.31469 18.8572,-20.96351 6.98725,-9.85049 13.1495,-20.27957 20.55588,-29.83218 2.78305,-3.47931 5.6732,-7.04208 9.51758,-9.39844 0.43616,-0.31124 0.96834,-0.43732 1.42389,-0.0929 2.29856,1.15299 4.09493,3.07241 5.85817,4.89947 5.6437,6.12635 10.1185,13.18204 14.76257,20.05299 6.51545,9.77183 12.84101,19.77543 20.88535,28.39123 5.56661,5.92958 12.28327,11.13485 20.2025,13.40901 6.67374,1.94093 13.97089,1.5081 20.39631,-1.12421 7.86074,-3.17463 14.28502,-9.02702 19.72857,-15.39377 7.14277,-8.31765 12.9696,-17.63763 19.06769,-26.71899 4.05371,-6.10438 8.1577,-12.2089 12.97378,-17.74702 0.3408,-0.37296 0.91442,-1.00577 1.35937,-1.46093 1.71966,-1.68709 3.46771,-3.4748 5.68359,-4.49219 0.54985,-0.14744 1.05609,0.3569 1.53929,0.55893 3.45909,2.28636 6.13172,5.53318 8.73806,8.7106 8.7638,11.25717 15.81684,23.77516 24.46174,35.16979 5.24344,6.90709 11.08439,13.58727 18.47522,18.26118 5.14502,3.27751 11.13045,5.33935 17.2602,5.43337 7.39409,0.23054 14.62037,-2.54103 20.57143,-6.80645 7.24594,-5.16353 12.94266,-12.13567 18.18246,-19.24643 4.62907,-6.41942 8.95786,-13.04836 13.3302,-19.64349 3.32468,-4.98907 6.80787,-10.04117 10.63281,-14.72852 2.46054,-2.8244 4.96027,-5.79154 8.30068,-7.60239 0.61023,-0.45427 1.1786,0.20093 1.72227,0.43364 2.77618,1.70151 4.939,4.2041 7.06232,6.63111 0.89876,1.06057 1.74164,2.11124 2.63399,3.2531 5.44673,7.10277 10.19096,14.70506 15.18941,22.12144 2.12935,3.15756 4.23223,6.34683 6.605,9.32717 4.14155,4.62443 11.19689,6.3388 16.97852,4.03711 5.57382,-2.06769 9.71168,-7.57661 9.95673,-13.54353 0.24875,-3.98483 -1.13457,-7.99188 -3.64257,-11.07949 -7.47611,-10.64421 -14.13704,-21.87394 -22.2873,-32.03492 -5.49467,-6.821 -11.8534,-13.2621 -19.8296,-17.11941 -4.67544,-2.22005 -9.86103,-3.42388 -15.04687,-3.23437 z"
     sodipodi:nodetypes="scccccccccccccccccccccccccccccccccssscccccccccccccccccccccccccccccccccccccccccccccccccsssccccccccccccccccccccccccccccccccccccccccccccccccccccccccccccccccccccss" /></svg>
